<svg xmlns="http://www.w3.org/2000/svg" viewBox="0 0 25.36 19.02"><defs><style>.cls-1{fill:#3af1a7;}</style></defs><title>Recurso 47</title><g id="Capa_2" data-name="Capa 2"><g id="Capa_1-2" data-name="Capa 1"><g id="Menu"><path class="cls-1" d="M14.62,0H1A1,1,0,0,0,0,1V2.48a1,1,0,0,0,.86,1H14.71a1,1,0,0,0,.86-1h0V1.08h0A1.06,1.06,0,0,0,14.62,0"/><path class="cls-1" d="M7.93,11.2H.51c-.29,0-.51.47-.51,1H0v1.4H0c0,.54.25,1,.55,1H7.93c.29,0,.51-.39.55-.93V12.06a1,1,0,0,0-.55-.86"/><path class="cls-1" d="M14.62,5.6H.93a1,1,0,0,0-.93,1V8.08a1,1,0,0,0,.93,1H14.71a1.08,1.08,0,0,0,.93-1V6.61a1.1,1.1,0,0,0-1-1"/></g><g id="plus"><g id="Increase_Quantity" data-name="Increase Quantity"><path class="cls-1" d="M23.83,14.44H20.78V17.5a1.53,1.53,0,0,1-3.06,0V14.44H14.66a1.53,1.53,0,1,1,0-3.06h3.06V8.32a1.53,1.53,0,1,1,3.06,0v3.06h3.06a1.53,1.53,0,1,1,0,3.06Z"/></g></g></g></g></svg>