<svg xmlns="http://www.w3.org/2000/svg" viewBox="0 0 164.27 26.62"><defs><style>.cls-1{fill:none;stroke:#221f1f;stroke-miterlimit:10;}.cls-2{fill:#221f1f;}</style></defs><title>COMENZAR</title><g id="Capa_2" data-name="Capa 2"><g id="Capa_1-2" data-name="Capa 1"><rect class="cls-1" x="0.5" y="0.5" width="163.27" height="25.62" rx="12" ry="12"/><path class="cls-2" d="M51.42,17.12a4,4,0,0,1-2.84,1.18,3.89,3.89,0,0,1-2.82-1.11c-1.08-1.08-1.23-2.41-1.23-4s.15-3,1.23-4A3.9,3.9,0,0,1,48.58,8a4,4,0,0,1,2.84,1.15,3.61,3.61,0,0,1,1,2.16H50.53a1.84,1.84,0,0,0-.45-1.05,1.88,1.88,0,0,0-1.5-.62,2.1,2.1,0,0,0-1.53.66,4.17,4.17,0,0,0-.69,2.86A4.17,4.17,0,0,0,47.05,16a2.09,2.09,0,0,0,1.53.66,1.89,1.89,0,0,0,1.5-.63,2,2,0,0,0,.45-1.09h1.85A3.65,3.65,0,0,1,51.42,17.12Z"/><path class="cls-2" d="M60.33,17.18a4.2,4.2,0,0,1-5.71,0c-1.08-1.08-1.26-2.4-1.26-4s.18-3,1.26-4a4.2,4.2,0,0,1,5.71,0c1.08,1.08,1.26,2.41,1.26,4S61.41,16.1,60.33,17.18ZM59,10.3a2.2,2.2,0,0,0-3.14,0,4.19,4.19,0,0,0-.71,2.86A4.15,4.15,0,0,0,55.9,16,2.2,2.2,0,0,0,59,16a4.15,4.15,0,0,0,.71-2.84A4.19,4.19,0,0,0,59,10.3Z"/><path class="cls-2" d="M71.56,18.11V11L69,18H67.65l-2.56-7v7.17H63.33V8.18h2.44l2.61,7.07L71,8.18h2.31v9.93Z"/><path class="cls-2" d="M75.63,18.11V8.18H82.7V9.82H77.43v2.31h4.64v1.63H77.43v2.72H82.7v1.64Z"/><path class="cls-2" d="M90.5,18.11l-4.3-6.82v6.82H84.42V8.18h1.92l4.24,6.72V8.18h1.78v9.93Z"/><path class="cls-2" d="M93.92,18.11V16.33L99.4,9.82H94V8.18h7.62V10l-5.44,6.51h5.5v1.64Z"/><path class="cls-2" d="M109.19,18.11l-.64-1.91h-3.95l-.64,1.91h-1.82l3.49-9.93h2l3.49,9.93Zm-2.62-7.72-1.42,4.19H108Z"/><path class="cls-2" d="M117.91,18.11l-1.65-3.75h-2.2v3.75h-1.82V8.18h4.19c2.37,0,3.45,1.49,3.45,3.08A2.86,2.86,0,0,1,118,14.05l1.82,4.06Zm-1.48-8.35H114v3h2.41c1,0,1.61-.53,1.61-1.47A1.52,1.52,0,0,0,116.42,9.77Z"/></g></g></svg>