<svg xmlns="http://www.w3.org/2000/svg" viewBox="0 0 163.27 25.62"><defs><style>.cls-1{fill:#d1d2d3;}.cls-2{fill:#221f1f;}</style></defs><title>COMENZAR OVER_1</title><g id="Capa_2" data-name="Capa 2"><g id="Capa_1-2" data-name="Capa 1"><rect class="cls-1" width="163.27" height="25.62" rx="12" ry="12"/><path class="cls-2" d="M50.92,16.62a4,4,0,0,1-2.84,1.18,3.89,3.89,0,0,1-2.82-1.11c-1.08-1.08-1.23-2.41-1.23-4s.15-3,1.23-4A3.9,3.9,0,0,1,48.08,7.5a4,4,0,0,1,2.84,1.15,3.61,3.61,0,0,1,1,2.16H50a1.84,1.84,0,0,0-.45-1.05,1.88,1.88,0,0,0-1.5-.62,2.1,2.1,0,0,0-1.53.66,4.17,4.17,0,0,0-.69,2.86,4.17,4.17,0,0,0,.69,2.86,2.09,2.09,0,0,0,1.53.66,1.89,1.89,0,0,0,1.5-.63A2,2,0,0,0,50,14.45h1.85A3.65,3.65,0,0,1,50.92,16.62Z"/><path class="cls-2" d="M59.83,16.68a4.2,4.2,0,0,1-5.71,0c-1.08-1.08-1.26-2.4-1.26-4s.18-3,1.26-4a4.2,4.2,0,0,1,5.71,0c1.08,1.08,1.26,2.41,1.26,4S60.91,15.6,59.83,16.68ZM58.54,9.8a2.2,2.2,0,0,0-3.14,0,4.19,4.19,0,0,0-.71,2.86,4.15,4.15,0,0,0,.71,2.84,2.2,2.2,0,0,0,3.14,0,4.15,4.15,0,0,0,.71-2.84A4.19,4.19,0,0,0,58.54,9.8Z"/><path class="cls-2" d="M71.06,17.61V10.53l-2.58,6.95H67.15l-2.56-7v7.17H62.83V7.68h2.44l2.61,7.07L70.5,7.68h2.31v9.93Z"/><path class="cls-2" d="M75.13,17.61V7.68H82.2V9.32H76.93v2.31h4.64v1.63H76.93V16H82.2v1.64Z"/><path class="cls-2" d="M90,17.61l-4.3-6.82v6.82H83.92V7.68h1.92l4.25,6.72V7.68h1.78v9.93Z"/><path class="cls-2" d="M93.42,17.61V15.83L98.9,9.32H93.51V7.68h7.62V9.46L95.69,16h5.5v1.64Z"/><path class="cls-2" d="M108.69,17.61,108,15.71h-4l-.64,1.91h-1.82l3.49-9.93h2l3.49,9.93ZM106.07,9.9l-1.42,4.19h2.83Z"/><path class="cls-2" d="M117.41,17.61l-1.65-3.75h-2.2v3.75h-1.82V7.68h4.19c2.37,0,3.45,1.49,3.45,3.08a2.86,2.86,0,0,1-1.82,2.79l1.82,4.06Zm-1.48-8.35h-2.38v3H116c1,0,1.61-.53,1.61-1.47A1.52,1.52,0,0,0,115.92,9.27Z"/></g></g></svg>