<svg xmlns="http://www.w3.org/2000/svg" viewBox="0 0 28.55 24.85"><defs><style>.cls-1{fill:#fff;}.cls-2{stroke:#221f1f;stroke-miterlimit:10;stroke-width:0.15px;}</style></defs><title>Recurso 9</title><g id="Capa_2" data-name="Capa 2"><g id="Capa_1-2" data-name="Capa 1"><g id="a5HXUD.tif"><path class="cls-1" d="M0,0H28.55V24.85H0ZM17.45,19.2h8.41a2.45,2.45,0,0,0,2.59-2.59q0-7,0-13.94A2.45,2.45,0,0,0,25.86.08H2.7a3.2,3.2,0,0,0-.63,0,2.45,2.45,0,0,0-2,2.55q0,7,0,14a2.86,2.86,0,0,0,0,.57,2.44,2.44,0,0,0,2.49,2H11a2.62,2.62,0,0,1,0,.27,7,7,0,0,1-2.55,4,.55.55,0,0,1-.31.1H6.87a.61.61,0,0,0-.57.87.65.65,0,0,0,.67.36H21.6a.62.62,0,1,0,0-1.23c-.4,0-.81,0-1.21,0A.6.6,0,0,1,20,23.4a7.07,7.07,0,0,1-2.28-3.11C17.64,20,17.56,19.6,17.45,19.2Z"/><path class="cls-2" d="M17.45,19.2c.12.4.2.76.32,1.1A7.07,7.07,0,0,0,20,23.4a.6.6,0,0,0,.34.12c.4,0,.81,0,1.21,0a.62.62,0,1,1,0,1.23H7a.65.65,0,0,1-.67-.36.61.61,0,0,1,.57-.87H8.14a.55.55,0,0,0,.31-.1,7,7,0,0,0,2.55-4,2.62,2.62,0,0,0,0-.27H2.61a2.44,2.44,0,0,1-2.49-2,2.86,2.86,0,0,1,0-.57q0-7,0-14a2.45,2.45,0,0,1,2-2.55,3.2,3.2,0,0,1,.63,0H25.86a2.45,2.45,0,0,1,2.59,2.59q0,7,0,13.94a2.45,2.45,0,0,1-2.59,2.59H17.45Zm9.77-4.94V14q0-5.64,0-11.28a1.25,1.25,0,0,0-1.38-1.37H2.7a1.25,1.25,0,0,0-1.4,1.39q0,5.63,0,11.25v.31Zm0,1.26H1.31c0,.35,0,.68,0,1A1.27,1.27,0,0,0,2.76,18h23.3a1.22,1.22,0,0,0,1.15-1.1C27.24,16.42,27.22,16,27.22,15.51Zm-8.92,8-.11-.13a7.79,7.79,0,0,1-2-4c0-.17-.11-.19-.25-.19H12.54c-.17,0-.23.05-.26.22a7.7,7.7,0,0,1-1.59,3.51l-.48.57Z"/><path class="cls-1" d="M27.22,15.51c0,.46,0,.91,0,1.35A1.22,1.22,0,0,1,26.06,18H2.76a1.27,1.27,0,0,1-1.45-1.45c0-.33,0-.65,0-1ZM14.28,17.34a.62.62,0,0,0,.61-.61.62.62,0,0,0-1.24,0A.62.62,0,0,0,14.28,17.34Z"/><path class="cls-1" d="M18.3,23.5H10.22l.48-.57a7.7,7.7,0,0,0,1.59-3.51c0-.17.09-.22.26-.22H16c.14,0,.23,0,.25.19a7.79,7.79,0,0,0,2,4Z"/><path d="M14.28,17.34a.62.62,0,0,1-.63-.61.62.62,0,0,1,1.24,0A.62.62,0,0,1,14.28,17.34Z"/></g></g></g></svg>