<?xml version="1.0" encoding="utf-8"?>
<!-- Generator: Adobe Illustrator 17.0.0, SVG Export Plug-In . SVG Version: 6.00 Build 0)  -->
<!DOCTYPE svg PUBLIC "-//W3C//DTD SVG 1.1//EN" "http://www.w3.org/Graphics/SVG/1.1/DTD/svg11.dtd">
<svg version="1.1" id="Capa_1" xmlns="http://www.w3.org/2000/svg" xmlns:xlink="http://www.w3.org/1999/xlink" x="0px" y="0px"
	 width="811.185px" height="411.429px" viewBox="0 0 811.185 411.429" enable-background="new 0 0 811.185 411.429"
	 xml:space="preserve">
<polygon fill="#5A5A5D" points="372.275,355.514 356.936,367.162 343.79,349.851 332.842,358.165 345.988,375.476 330.771,387.033 
	339.606,398.667 354.825,387.11 368.035,404.478 378.969,396.174 365.772,378.796 381.112,367.147 "/>
<polygon fill="none" stroke="#5A5A5D" stroke-width="0.5" stroke-miterlimit="10" points="463.835,26.04 453.231,44.917 
	436.507,35.521 447.111,16.644 435.174,9.939 424.57,28.815 417.445,41.502 417.459,41.51 429.381,48.206 446.107,57.603 
	446.121,57.61 458.043,64.309 475.773,32.748 "/>
<polygon fill="none" stroke="#5A5A5D" stroke-width="0.5" stroke-miterlimit="10" points="38.032,234.288 25.299,219.925 
	9.089,234.296 0,224.044 43.378,185.589 52.454,195.827 36.192,210.266 48.926,224.631 "/>
<polygon fill="none" stroke="#5A5A5D" stroke-width="0.5" stroke-miterlimit="10" points="759.617,202.775 777.352,195.435 
	769.068,175.418 781.727,170.178 803.896,223.742 791.254,228.973 782.922,208.885 765.185,216.227 "/>
	
</svg>
