<?xml version="1.0" encoding="utf-8"?>
<!-- Generator: Adobe Illustrator 17.0.0, SVG Export Plug-In . SVG Version: 6.00 Build 0)  -->
<!DOCTYPE svg PUBLIC "-//W3C//DTD SVG 1.1//EN" "http://www.w3.org/Graphics/SVG/1.1/DTD/svg11.dtd">
<svg version="1.1" id="Capa_1" xmlns="http://www.w3.org/2000/svg" xmlns:xlink="http://www.w3.org/1999/xlink" x="0px" y="0px"
	 width="813.571px" height="877.857px" viewBox="0 0 813.571 877.857" enable-background="new 0 0 813.571 877.857"
	 xml:space="preserve">
<polygon fill="none" stroke="#5A5A5D" stroke-width="0.5" stroke-miterlimit="10" points="49.182,343.826 64.697,328.724
	78.076,342.472 62.562,357.572 72.112,367.384 87.626,352.283 98.051,342.133 98.04,342.121 88.502,332.323 75.121,318.575
	75.11,318.563 65.572,308.764 39.632,334.013 "/>
<polygon fill="#5A5A5D" points="516.523,264.661 524.668,282.043 544.284,272.85 550.098,285.256 497.607,309.855 491.801,297.466
	511.486,288.222 503.34,270.84 "/>
<polygon fill="none" stroke="#5A5A5D" stroke-width="0.5" stroke-miterlimit="10" points="695.124,433.367 679.94,421.517
	693.315,404.381 682.477,395.924 669.102,413.059 654.039,401.304 645.052,412.82 660.117,424.578 646.705,441.791 657.528,450.237
	670.953,433.034 686.138,444.886 "/>
<polygon fill="none" stroke="#5A5A5D" stroke-width="0.5" stroke-miterlimit="10" points="726.844,79.237 737.472,63.255
	719.433,51.258 727.02,39.85 775.29,71.951 767.714,83.343 749.596,71.315 738.966,87.3 "/>
<polygon fill="#5A5A5D" points="378.132,825.514 362.793,837.162 349.647,819.851 338.699,828.165 351.845,845.476 336.628,857.033
	345.463,868.667 360.682,857.11 373.892,874.478 384.826,866.174 371.629,848.796 386.969,837.147 "/>
<polygon fill="none" stroke="#5A5A5D" stroke-width="0.5" stroke-miterlimit="10" points="469.692,496.04 459.088,514.917
	442.364,505.521 452.968,486.645 441.031,479.939 430.427,498.815 423.302,511.502 423.316,511.51 435.238,518.206 451.964,527.602
	451.978,527.61 463.9,534.309 481.63,502.748 "/>
<polygon fill="none" stroke="#5A5A5D" stroke-width="0.5" stroke-miterlimit="10" points="43.889,704.288 31.156,689.925
	14.946,704.296 5.857,694.044 49.235,655.589 58.311,665.827 42.049,680.266 54.783,694.631 "/>
<polygon fill="none" stroke="#5A5A5D" stroke-width="0.5" stroke-miterlimit="10" points="765.474,672.775 783.209,665.435
	774.925,645.418 787.584,640.178 809.753,693.742 797.111,698.973 788.779,678.885 771.042,686.227 "/>
	      <polygon stroke="black" fill="none" transform="translate(100,0)"
   points="50,0 21,90 98,35 2,35 79,90"/>

</svg>
