<svg xmlns="http://www.w3.org/2000/svg" viewBox="0 0 27.71 24.99"><defs><style>.cls-1{fill:#221f1f;}</style></defs><title>Recurso 44</title><g id="Capa_2" data-name="Capa 2"><g id="Capa_1-2" data-name="Capa 1"><g id="heart"><path class="cls-1" d="M27,4.81A7.86,7.86,0,0,0,19.94,0a7.4,7.4,0,0,0-6.09,2.78A7.44,7.44,0,0,0,7.77,0,7.86,7.86,0,0,0,.71,4.81a8.21,8.21,0,0,0,1.59,9C8,20.14,13,24.63,13,24.68a1.21,1.21,0,0,0,1.62,0s5.07-4.53,10.74-10.86A8.2,8.2,0,0,0,27,4.81ZM23.6,12.18c-4.25,4.73-8.12,8.41-9.74,9.92-1.62-1.51-5.49-5.19-9.74-9.93A5.74,5.74,0,0,1,2.94,5.8,5.51,5.51,0,0,1,7.77,2.43c3.94,0,4.82,2.93,4.91,3.25a1.22,1.22,0,0,0,2.37,0c0-.13.84-3.25,4.91-3.25A5.49,5.49,0,0,1,24.78,5.8,5.76,5.76,0,0,1,23.6,12.18Z"/></g></g></g></svg>