<?xml version="1.0" encoding="utf-8"?>
<!-- Generator: Adobe Illustrator 17.0.0, SVG Export Plug-In . SVG Version: 6.00 Build 0)  -->
<!DOCTYPE svg PUBLIC "-//W3C//DTD SVG 1.1//EN" "http://www.w3.org/Graphics/SVG/1.1/DTD/svg11.dtd">
<svg version="1.1" id="Capa_1" xmlns="http://www.w3.org/2000/svg" xmlns:xlink="http://www.w3.org/1999/xlink" x="0px" y="0px"
	 width="10.833px" height="11.833px" viewBox="0 0 10.833 11.833" enable-background="new 0 0 10.833 11.833" xml:space="preserve">
<path fill="none" stroke="#000000" stroke-width="0.35" stroke-miterlimit="10" d="M9.611,3.139L8.68,2.621l0.61-0.347
	C9.439,2.178,9.519,2.048,9.519,1.9C9.513,1.742,9.415,1.614,9.24,1.554L5.777,0.645c-0.172-0.04-0.38-0.06-0.58,0.036L1.844,2.635
	c-0.008,0.004-0.012,0.012-0.02,0.018L1.822,2.649L1.79,2.671C1.187,3.073,1.103,3.514,1.103,3.928v3.787
	c0,0.245,0.126,0.475,0.332,0.605c0.008,0.006,0.014,0.01,0.022,0.016l3.746,2.168l0.1,0.06c0.008,0.006,0.026,0.014,0.036,0.018
	c0.072,0.028,0.15,0.042,0.228,0.042c0.074,0,0.15-0.014,0.246-0.054l3.864-2.232c0.006-0.004,0.012-0.008,0.02-0.014
	c0.206-0.132,0.332-0.362,0.332-0.607V3.928C10.031,3.532,9.913,3.309,9.611,3.139z M9.661,7.715c0,0.12-0.064,0.235-0.166,0.299
	C9.491,8.016,9.487,8.02,9.483,8.022l-3.732,2.156l-0.094,0.056c-0.066,0.024-0.148,0.012-0.166,0.01L1.66,8.024
	C1.654,8.02,1.648,8.016,1.641,8.012C1.537,7.95,1.473,7.835,1.473,7.715V3.928c0-0.372,0.088-0.661,0.521-0.951l0.038-0.026
	l3.271-1.904l0.066-0.04c0.084-0.04,0.16-0.038,0.348,0.004L9.15,1.906C9.148,1.914,9.13,1.938,9.1,1.958L7.829,2.679L7.537,2.845
	L5.753,3.854L5.707,3.88C5.665,3.902,5.611,3.914,5.555,3.914c-0.054,0-0.1-0.012-0.202-0.034L2.564,3.163
	c-0.122-0.03-0.252-0.022-0.366,0.022H2.196H2.194c-0.136,0.056-0.24,0.156-0.3,0.295C1.862,3.554,1.846,3.634,1.846,3.71
	c0,0.212,0.108,0.4,0.29,0.506c2.47,1.404,3.029,1.716,3.165,1.79c0.016,0.012,0.036,0.022,0.056,0.028
	c0.174,0.054,0.326,0.038,0.442-0.01c0.018-0.006,0.044-0.016,3.199-1.806C9.114,4.152,9.19,4.032,9.194,3.904
	C9.2,3.78,9.136,3.664,9.018,3.584C8.924,3.522,8.362,3.207,8.001,3.007l0.297-0.168l1.127,0.627c0.17,0.096,0.232,0.18,0.232,0.464
	v3.785H9.661z M8.816,3.892C7.965,4.374,5.743,5.636,5.661,5.678C5.617,5.696,5.565,5.704,5.489,5.686c-0.002,0-0.002,0-0.002-0.002
	c-0.098-0.048-1.948-1.097-3.165-1.79C2.232,3.842,2.218,3.756,2.218,3.71c0-0.034,0.01-0.068,0.018-0.084
	c0.02-0.046,0.052-0.076,0.1-0.096c0.042-0.016,0.094-0.018,0.14-0.008l2.783,0.714c0.002,0,0.036,0.008,0.038,0.008
	c0.086,0.02,0.162,0.038,0.256,0.038c0.116,0,0.228-0.026,0.326-0.078l1.746-0.989C8.089,3.476,8.732,3.834,8.816,3.892z"/>
</svg>
