<?xml version="1.0" encoding="utf-8"?>
<!-- Generator: Adobe Illustrator 22.0.1, SVG Export Plug-In . SVG Version: 6.00 Build 0)  -->
<svg version="1.1" id="Layer_1" xmlns="http://www.w3.org/2000/svg" xmlns:xlink="http://www.w3.org/1999/xlink" x="0px" y="0px"
	 viewBox="0 0 35.9 35.8" style="enable-background:new 0 0 35.9 35.8;" xml:space="preserve">
<style type="text/css">
	.st0{display:none;fill:#FFFFFF;}
	.st1{display:none;fill:none;stroke:#221F1F;stroke-miterlimit:10;}
	.st2{display:none;fill:none;stroke:#221F1F;stroke-width:2;stroke-miterlimit:10;}
	.st3{fill:none;stroke:#3AF1A7;stroke-width:2;stroke-miterlimit:10;}
	.st4{fill:#3AF1A7;}
</style>
<path class="st0" d="M16.9,16.8c0-0.8,0.6-1.5,1.4-1.5s1.4,0.6,1.4,1.5c0,0.8-0.6,1.5-1.4,1.5S16.9,17.7,16.9,16.8"/>
<path class="st1" d="M16.9,16.8c0-0.8,0.6-1.5,1.4-1.5s1.4,0.6,1.4,1.5c0,0.8-0.6,1.5-1.4,1.5S16.9,17.7,16.9,16.8z"/>
<path class="st0" d="M21.8,16.8c0-0.8,0.6-1.5,1.4-1.5s1.4,0.6,1.4,1.5c0,0.8-0.6,1.5-1.4,1.5S21.8,17.7,21.8,16.8"/>
<path class="st1" d="M21.8,16.8c0-0.8,0.6-1.5,1.4-1.5s1.4,0.6,1.4,1.5c0,0.8-0.6,1.5-1.4,1.5S21.8,17.7,21.8,16.8z"/>
<ellipse class="st2" cx="18.2" cy="18.2" rx="16.2" ry="16.2"/>
<ellipse class="st3" cx="18.2" cy="18.2" rx="16.2" ry="16.2"/>
<path class="st4" d="M17.9,19.2l7.7-5.6c0-0.5-0.4-0.9-1-0.9H11.2c-0.5,0-1,0.4-1,0.9L17.9,19.2z M17.9,20.9l-7.7-5.6V23
	c0,0.5,0.4,0.9,1,0.9h13.5c0.5,0,1-0.4,1-0.9v-7.7L17.9,20.9z"/>
</svg>
