<?xml version="1.0" encoding="utf-8"?>
<!-- Generator: Adobe Illustrator 17.0.0, SVG Export Plug-In . SVG Version: 6.00 Build 0)  -->
<!DOCTYPE svg PUBLIC "-//W3C//DTD SVG 1.1//EN" "http://www.w3.org/Graphics/SVG/1.1/DTD/svg11.dtd">
<svg version="1.1" id="Capa_1" xmlns="http://www.w3.org/2000/svg" xmlns:xlink="http://www.w3.org/1999/xlink" x="0px" y="0px"
	 width="52.333px" height="16.333px" viewBox="0 0 52.333 16.333" enable-background="new 0 0 52.333 16.333" xml:space="preserve">
<path fill="#59595C" d="M14.038,8c0,3.63-2.959,6.572-6.609,6.572c-3.651,0-6.61-2.942-6.61-6.572c0-3.63,2.959-6.572,6.61-6.572
	C11.079,1.428,14.038,4.37,14.038,8"/>
<path fill="#FFFC1A" d="M7.949,9.089H6.564v2.345H5.383V4.889h2.566c1.505,0,2.308,0.84,2.308,2.095
	C10.257,8.24,9.454,9.089,7.949,9.089 M7.903,5.932H6.564v2.114h1.339c0.794,0,1.154-0.425,1.154-1.052
	C9.057,6.366,8.697,5.932,7.903,5.932"/>
<path fill="#59595C" d="M32.475,8c0,3.63-2.959,6.572-6.609,6.572c-3.65,0-6.61-2.942-6.61-6.572c0-3.63,2.96-6.572,6.61-6.572
	C29.516,1.428,32.475,4.37,32.475,8"/>
<rect x="25.261" y="4.889" fill="#07C4E0" width="1.209" height="6.545"/>
<path fill="#59595C" d="M50.911,8c0,3.63-2.959,6.572-6.609,6.572c-3.65,0-6.609-2.942-6.609-6.572c0-3.63,2.959-6.572,6.609-6.572
	C47.952,1.428,50.911,4.37,50.911,8"/>
<polygon fill="#DB054E" points="42.635,11.451 42.635,4.87 43.832,4.87 43.832,10.319 46.886,10.319 46.886,11.451 "/>
</svg>
