<?xml version="1.0" encoding="utf-8"?>
<!-- Generator: Adobe Illustrator 17.0.0, SVG Export Plug-In . SVG Version: 6.00 Build 0)  -->
<!DOCTYPE svg PUBLIC "-//W3C//DTD SVG 1.1//EN" "http://www.w3.org/Graphics/SVG/1.1/DTD/svg11.dtd">
<svg version="1.1" id="Capa_1" xmlns="http://www.w3.org/2000/svg" xmlns:xlink="http://www.w3.org/1999/xlink" x="0px" y="0px"
	 width="58.25px" height="21.25px" viewBox="0 0 58.25 21.25" enable-background="new 0 0 58.25 21.25" xml:space="preserve">
<path fill="#59595C" d="M20.713,10.218c0,5.197-4.238,9.411-9.464,9.411c-5.227,0-9.465-4.214-9.465-9.411
	c0-5.198,4.238-9.411,9.465-9.411C16.475,0.807,20.713,5.02,20.713,10.218"/>
<path fill="#F24405" d="M5.789,10.368C5.967,10.185,6.141,10,6.324,9.822c0.035-0.035,0.102-0.055,0.154-0.055
	c1.144-0.003,2.287-0.002,3.431-0.002c0.014,0,0.027,0.005,0.049,0.008c-0.161,0.534-0.065,1.014,0.328,1.407
	c0.394,0.393,0.873,0.489,1.416,0.325v0.125c0,0.945,0.001,1.89-0.003,2.835c0,0.084-0.025,0.175-0.061,0.252
	c-0.122,0.261-0.25,0.518-0.386,0.771c-0.039,0.073-0.115,0.127-0.174,0.189h-0.341c-0.027-0.006-0.054-0.017-0.081-0.019
	c-0.485-0.041-0.95-0.164-1.397-0.354c-0.946-0.403-1.724-1.024-2.353-1.832c-0.499-0.642-0.856-1.355-1.022-2.155
	c-0.041-0.194-0.064-0.391-0.095-0.587V10.368z M7.831,12.035c0.381,0.001,0.685-0.298,0.688-0.678
	c0.003-0.373-0.308-0.686-0.682-0.686c-0.37,0-0.68,0.306-0.683,0.676C7.151,11.726,7.454,12.034,7.831,12.035 M8.519,12.261
	c-0.002,0.377,0.304,0.684,0.682,0.686c0.37,0.002,0.68-0.304,0.683-0.674c0.002-0.379-0.302-0.689-0.677-0.689
	C8.827,11.583,8.522,11.883,8.519,12.261 M9.431,13.627c-0.001,0.378,0.303,0.685,0.68,0.685c0.374,0,0.686-0.312,0.684-0.685
	c-0.003-0.372-0.308-0.678-0.679-0.679C9.736,12.946,9.432,13.248,9.431,13.627"/>
<path fill="#F24405" d="M14.725,4.759c0.192,0.183,0.388,0.362,0.573,0.552c0.079,0.081,0.063,0.203-0.022,0.29
	c-0.37,0.373-0.743,0.743-1.12,1.119c-0.33-0.269-0.686-0.493-1.075-0.664c-0.389-0.171-0.794-0.283-1.221-0.361
	c0.037-0.014,0.074-0.028,0.111-0.041c0.847-0.286,1.693-0.571,2.54-0.857c0.029-0.01,0.057-0.025,0.086-0.038H14.725z"/>
<path fill="#F24405" d="M16.708,6.87c-0.113,0.324-0.227,0.647-0.338,0.972c-0.187,0.55-0.372,1.101-0.558,1.652
	C15.8,9.53,15.786,9.566,15.763,9.603c-0.132-0.855-0.464-1.619-1.016-2.291c0.026-0.028,0.048-0.054,0.073-0.078
	c0.336-0.337,0.672-0.673,1.009-1.009c0.14-0.141,0.252-0.141,0.393-0.001c0.131,0.13,0.262,0.26,0.391,0.393
	c0.036,0.037,0.064,0.083,0.095,0.125V6.87z"/>
<path fill="#F24405" d="M16.708,11.519c-0.041,0.116-0.074,0.235-0.126,0.346c-0.093,0.197-0.244,0.344-0.437,0.464
	c-0.31-0.685-0.615-1.36-0.924-2.042c0.279-0.109,0.548-0.089,0.81,0.029c0.353,0.16,0.569,0.436,0.655,0.814
	c0.005,0.024,0.015,0.046,0.022,0.069V11.519z"/>
<path fill="#F24405" d="M12.614,10.296c0.434,0.186,0.855,0.364,1.274,0.547c0.062,0.027,0.11,0.024,0.168-0.005
	c0.244-0.124,0.489-0.242,0.748-0.369c0.305,0.674,0.608,1.343,0.915,2.023c-0.095,0.031-0.181,0.059-0.268,0.086
	c-0.377,0.115-0.754,0.228-1.129,0.346c-0.095,0.031-0.177,0.022-0.265-0.023c-0.605-0.304-1.211-0.607-1.818-0.908
	c-0.06-0.03-0.082-0.064-0.08-0.13c0.004-0.188-0.001-0.377,0.003-0.565c0.001-0.041,0.017-0.092,0.045-0.121
	c0.222-0.23,0.36-0.499,0.392-0.819C12.6,10.341,12.606,10.325,12.614,10.296"/>
<path fill="#F24405" d="M11.624,8.579c-0.134-0.811-0.268-1.625-0.405-2.455c0.814-0.003,1.551,0.217,2.22,0.64
	C12.833,7.369,12.232,7.97,11.624,8.579"/>
<path fill="#F24405" d="M12.864,9.872c0.611-0.612,1.222-1.224,1.832-1.834c0.273,0.327,0.593,1.216,0.621,1.752
	c-0.37,0.056-0.678,0.269-1.014,0.416c-0.027,0.012-0.064,0.013-0.092,0.006c-0.441-0.11-0.881-0.221-1.322-0.332
	C12.876,9.877,12.865,9.872,12.864,9.872"/>
<path fill="#F24405" d="M11.212,8.878c-0.062-0.028-0.105-0.035-0.131-0.061C10.408,8.145,9.737,7.47,9.066,6.796
	C9.061,6.791,9.059,6.784,9.051,6.77c0.519-0.341,1.109-0.502,1.698-0.702C10.903,7.002,11.054,7.921,11.212,8.878"/>
<path fill="#F24405" d="M12.16,10.218c0,0.498-0.411,0.91-0.909,0.91c-0.5,0-0.914-0.412-0.913-0.907
	c0.002-0.507,0.408-0.914,0.915-0.916C11.748,9.304,12.16,9.718,12.16,10.218"/>
<path fill="#F24405" d="M14.424,7.616c-0.671,0.671-1.321,1.32-1.978,1.977c-0.133-0.243-0.32-0.44-0.561-0.567
	c0.652-0.653,1.302-1.304,1.97-1.972C14.038,7.235,14.23,7.425,14.424,7.616"/>
<path fill="#F24405" d="M8.045,7.639C8.26,7.419,8.45,7.225,8.633,7.038c0.676,0.672,1.325,1.317,1.973,1.961
	c-0.113,0.096-0.228,0.194-0.345,0.288c-0.019,0.015-0.052,0.017-0.08,0.018C9.762,9.319,9.762,9.319,9.465,9.022
	C9.03,8.587,8.596,8.152,8.16,7.719C8.133,7.691,8.097,7.674,8.045,7.639"/>
<path fill="#F24405" d="M9.061,9.301H7.273c0.1-0.463,0.277-0.886,0.521-1.272C8.219,8.455,8.64,8.879,9.061,9.301"/>
<path fill="#F24405" d="M12.166,14.194v-1.738c0.089,0.053,0.175,0.086,0.236,0.145c0.344,0.334,0.681,0.675,1.02,1.013
	c0.01,0.01,0.018,0.021,0.034,0.042C13.06,13.914,12.634,14.085,12.166,14.194"/>
<path fill="#F24405" d="M7.842,11.13c0.123,0.001,0.223,0.102,0.223,0.224c0.001,0.125-0.107,0.231-0.232,0.228
	c-0.122-0.003-0.223-0.105-0.224-0.226C7.608,11.23,7.714,11.128,7.842,11.13"/>
<path fill="#F24405" d="M9.205,12.492c-0.119,0.002-0.226-0.099-0.231-0.22c-0.007-0.121,0.101-0.235,0.225-0.237
	c0.119-0.001,0.226,0.1,0.231,0.22C9.435,12.379,9.33,12.49,9.205,12.492"/>
<path fill="#F24405" d="M10.336,13.628c0.001,0.124-0.096,0.225-0.219,0.229c-0.125,0.004-0.232-0.101-0.233-0.227
	c0-0.127,0.106-0.232,0.231-0.23C10.237,13.403,10.336,13.504,10.336,13.628"/>
<path fill="#0C3783" d="M57.154,11.128c0,5.145-4.194,9.315-9.368,9.315c-5.174,0-9.368-4.17-9.368-9.315
	c0-5.145,4.194-9.315,9.368-9.315C52.96,1.813,57.154,5.983,57.154,11.128"/>
<path fill="#F1F1F1" d="M45.31,14.328c0.679-0.169,1.43-0.301,2.19-0.33v-2.583h-2.577C44.943,12.59,45.089,13.548,45.31,14.328
	 M50.65,11.415h-2.577v2.586c0.728,0.031,1.447,0.172,2.098,0.358C50.438,13.563,50.624,12.593,50.65,11.415 M45.464,7.44
	c0.559,0.131,1.233,0.226,2.036,0.243V5.115c-0.19,0.008-0.379,0.026-0.562,0.051C46.436,5.596,45.872,6.298,45.464,7.44
	 M44.923,10.842H47.5V8.259c-0.826-0.023-1.563-0.146-2.193-0.312C45.089,8.724,44.943,9.675,44.923,10.842 M50.191,7.956
	c-0.619,0.16-1.33,0.278-2.118,0.3v2.586h2.577C50.624,9.692,50.446,8.741,50.191,7.956 M51.223,10.842H53.8
	c-0.066-1.419-0.625-2.709-1.508-3.704c-0.367,0.201-0.923,0.462-1.628,0.683C50.974,8.644,51.192,9.641,51.223,10.842
	 M48.403,5.141c-0.109-0.012-0.218-0.02-0.33-0.026v2.568c0.754-0.017,1.396-0.103,1.938-0.223
	C49.546,6.321,48.916,5.588,48.403,5.141 M50.466,7.348c0.66-0.187,1.13-0.419,1.439-0.608c-0.802-0.754-1.808-1.287-2.929-1.513
	C49.446,5.676,50.016,6.364,50.466,7.348 M46.336,5.284c-1.018,0.252-1.929,0.76-2.669,1.456c0.289,0.178,0.725,0.393,1.324,0.574
	C45.378,6.353,45.883,5.708,46.336,5.284 M48.976,17.031c1.086-0.218,2.067-0.728,2.855-1.445c-0.347-0.163-0.84-0.373-1.419-0.559
	C49.973,15.947,49.429,16.598,48.976,17.031 M44.814,7.801c-0.671-0.215-1.19-0.464-1.54-0.66c-0.88,0.995-1.436,2.282-1.502,3.698
	h2.577C44.372,9.609,44.553,8.609,44.814,7.801 M48.073,14.574v2.566c0.112-0.006,0.221-0.014,0.33-0.026
	c0.498-0.433,1.109-1.138,1.568-2.222C49.383,14.732,48.732,14.606,48.073,14.574 M52.803,15.428l-0.184,0.184
	c-1.141,1.23-2.743,2.024-4.535,2.104c-0.008,0.006-0.014,0.009-0.014,0.009h-0.573c0,0-0.009-0.003-0.023-0.009
	c-1.789-0.083-3.391-0.877-4.532-2.11l-0.316-0.321c0,0,0.012-0.006,0.032-0.014c-0.917-1.132-1.465-2.574-1.465-4.142
	c0-1.64,0.599-3.139,1.588-4.291c-0.008-0.006-0.011-0.009-0.011-0.009l0.177-0.178c1.139-1.23,2.741-2.026,4.53-2.109
	C47.491,4.536,47.5,4.533,47.5,4.533h0.573c0,0,0.006,0.003,0.014,0.009c1.789,0.08,3.394,0.874,4.535,2.104l0.184,0.183
	c0,0-0.003,0.003-0.012,0.009c0.986,1.152,1.585,2.651,1.585,4.291c0,1.639-0.599,3.139-1.591,4.291
	C52.797,15.425,52.803,15.428,52.803,15.428 M50.638,14.503c0.671,0.217,1.239,0.467,1.626,0.65c0.9-1,1.467-2.301,1.536-3.738
	h-2.577C51.192,12.648,50.962,13.669,50.638,14.503 M44.349,11.415h-2.577c0.066,1.376,0.591,2.632,1.428,3.615
	c0.39-0.16,0.954-0.376,1.614-0.567C44.553,13.654,44.372,12.651,44.349,11.415 M45.011,14.993c-0.567,0.16-1.049,0.338-1.393,0.478
	c0.748,0.72,1.683,1.247,2.721,1.503C45.892,16.555,45.395,15.927,45.011,14.993 M46.935,17.088
	c0.186,0.026,0.373,0.043,0.565,0.052v-2.569c-0.706,0.026-1.399,0.144-2.018,0.296C45.886,15.982,46.442,16.67,46.935,17.088"/>
</svg>
