<?xml version="1.0" encoding="utf-8"?>
<!-- Generator: Adobe Illustrator 22.0.1, SVG Export Plug-In . SVG Version: 6.00 Build 0)  -->
<svg version="1.1" id="Layer_1" xmlns="http://www.w3.org/2000/svg" xmlns:xlink="http://www.w3.org/1999/xlink" x="0px" y="0px"
	 viewBox="0 0 35.9 35.8" style="enable-background:new 0 0 35.9 35.8;" xml:space="preserve">
<style type="text/css">
	.st0{display:none;fill:#FFFFFF;}
	.st1{display:none;fill:none;stroke:#221F1F;stroke-miterlimit:10;}
	.st2{display:none;fill:none;stroke:#221F1F;stroke-width:2;stroke-miterlimit:10;}
	.st3{fill:none;stroke:#221F1F;stroke-miterlimit:10;}
</style>
<path class="st0" d="M16.9,16.8c0-0.8,0.6-1.5,1.4-1.5c0.8,0,1.4,0.6,1.4,1.5c0,0.8-0.6,1.5-1.4,1.5C17.5,18.3,16.9,17.7,16.9,16.8"
	/>
<path class="st1" d="M16.9,16.8c0-0.8,0.6-1.5,1.4-1.5c0.8,0,1.4,0.6,1.4,1.5c0,0.8-0.6,1.5-1.4,1.5C17.5,18.3,16.9,17.7,16.9,16.8z
	"/>
<path class="st0" d="M21.8,16.8c0-0.8,0.6-1.5,1.4-1.5c0.8,0,1.4,0.6,1.4,1.5c0,0.8-0.6,1.5-1.4,1.5C22.4,18.3,21.8,17.7,21.8,16.8"
	/>
<path class="st1" d="M21.8,16.8c0-0.8,0.6-1.5,1.4-1.5c0.8,0,1.4,0.6,1.4,1.5c0,0.8-0.6,1.5-1.4,1.5C22.4,18.3,21.8,17.7,21.8,16.8z
	"/>
<ellipse transform="matrix(0.8507 -0.5257 0.5257 0.8507 -6.8657 12.3017)" class="st2" cx="18.2" cy="18.2" rx="16.2" ry="16.2"/>
<path class="st3" d="M4.7,14.1c1.5-0.2,2.9-0.4,4.4-0.6c1.5-0.2,3-0.4,4.4-0.6c0.2,0,0.3-0.1,0.4-0.3c1.3-2.6,2.5-5.2,3.8-7.7
	c0-0.1,0.1-0.1,0.1-0.2h0.6c1.3,2.6,2.6,5.2,3.9,7.9c0.1,0.2,0.3,0.3,0.5,0.4c1,0.1,1.9,0.3,2.9,0.4c1,0.1,1.9,0.3,2.9,0.4
	c0.9,0.1,1.9,0.3,2.8,0.4c0.2,0,0.2,0.1,0.2,0.2c0.1,0.4-0.1,0.6-0.4,0.8c-2,1.9-4,3.9-6,5.8c-0.1,0.1-0.1,0.1-0.1,0.2
	c0.2,1.2,0.4,2.4,0.6,3.6c0.2,1.3,0.5,2.7,0.7,4c0.1,0.4,0.1,0.8,0.2,1.1c0,0,0,0,0,0c0,0.3,0,0.3-0.2,0.3c-0.4,0-0.8-0.1-1.1-0.3
	c-2.3-1.2-4.7-2.5-7-3.7c-0.1-0.1-0.2-0.1-0.3,0c-2.5,1.3-5,2.6-7.4,3.9c-0.1,0-0.2,0.1-0.3,0.1c-0.2,0-0.4,0-0.5,0
	c-0.1,0-0.2-0.1-0.2-0.2c0-0.2,0.1-0.4,0.1-0.7c0.2-1.1,0.4-2.3,0.6-3.4c0.2-1.1,0.4-2.1,0.6-3.2c0.1-0.5,0.2-1.1,0.3-1.6
	c0-0.1,0-0.1-0.1-0.2c-2.1-2.1-4.2-4.1-6.3-6.1c0,0,0,0-0.1,0V14.1z M25.8,29.3c0-0.1,0-0.1,0-0.1c-0.1-0.4-0.1-0.8-0.2-1.2
	c-0.2-1.1-0.4-2.3-0.6-3.4c-0.2-1.2-0.4-2.4-0.6-3.6c0-0.2,0-0.4,0.2-0.6c2-1.9,3.9-3.8,5.9-5.7c0,0,0.1-0.1,0.1-0.1
	c0,0-0.1,0-0.1,0c-0.6-0.1-1.3-0.2-1.9-0.3c-1-0.1-2-0.3-3.1-0.4c-1.1-0.2-2.2-0.3-3.2-0.5c-0.2,0-0.4-0.1-0.5-0.3c-1-2-2-4.1-3-6.1
	c-0.2-0.5-0.5-0.9-0.7-1.4c0,0.1-0.1,0.1-0.1,0.1c-1.2,2.5-2.4,4.9-3.7,7.4c-0.1,0.2-0.2,0.3-0.4,0.3c-0.2,0-0.5,0.1-0.7,0.1
	c-1.2,0.2-2.4,0.3-3.6,0.5c-1.2,0.2-2.3,0.3-3.5,0.5c-0.2,0-0.3,0-0.5,0.1c0,0,0.1,0.1,0.1,0.1c0.9,0.9,1.8,1.8,2.7,2.6
	c1.1,1,2.1,2.1,3.2,3.1c0.1,0.1,0.2,0.2,0.2,0.4c-0.1,0.5-0.2,1-0.3,1.5c-0.2,1-0.3,2-0.5,3c-0.2,1-0.4,2.1-0.5,3.1
	c0,0.2-0.1,0.5-0.1,0.8c0.1,0,0.1-0.1,0.2-0.1c2.4-1.3,4.8-2.5,7.2-3.8c0.2-0.1,0.4-0.1,0.6,0c2.4,1.3,4.8,2.5,7.2,3.8
	C25.7,29.3,25.8,29.3,25.8,29.3z"/>
</svg>
