<?xml version="1.0" encoding="utf-8"?>
<!-- Generator: Adobe Illustrator 22.0.1, SVG Export Plug-In . SVG Version: 6.00 Build 0)  -->
<svg version="1.1" id="Layer_1" xmlns="http://www.w3.org/2000/svg" xmlns:xlink="http://www.w3.org/1999/xlink" x="0px" y="0px"
	 viewBox="0 0 40.2 38.6" style="enable-background:new 0 0 40.2 38.6;" xml:space="preserve">
<style type="text/css">
	.st0{fill:#221F1F;}
</style>
<g id="YXT0MF_7_">
	<g>
		<path class="st0" d="M35,28.2c0,1,0,1.9,0,2.9c-0.2,0-0.3,0-0.4,0c-5.1,0-10.2,0-15.3,0c-0.3,0-0.5,0.1-0.6,0.4
			c-0.8,1.6-2.1,2.5-3.9,2.5c-1.8,0-3.1-0.9-3.9-2.5c-0.2-0.3-0.3-0.4-0.7-0.4c-1.2,0-2.5,0-3.7,0c-0.1,0-0.2,0-0.4,0
			c0-1,0-1.9,0-2.9c0.1,0,0.2,0,0.4,0c1.3,0,2.6,0,3.9,0c0.2,0,0.4-0.1,0.5-0.3c0.8-1.7,2.1-2.6,4-2.6c1.8,0,3.2,0.9,4,2.6
			c0.1,0.2,0.2,0.3,0.5,0.3c5.2,0,10.3,0,15.5,0C34.7,28.2,34.8,28.2,35,28.2z M16.1,29.6c0-0.8-0.7-1.4-1.5-1.4
			c-0.8,0-1.4,0.7-1.4,1.5c0,0.8,0.7,1.5,1.5,1.5C15.5,31.1,16.1,30.4,16.1,29.6z"/>
		<path class="st0" d="M35,10.8c-1.4,0-2.7,0-4,0c-3.5,0-6.9,0-10.4,0c-0.3,0-0.4,0.1-0.5,0.3c-0.8,1.7-2.1,2.6-4,2.6
			c-1.8,0-3.2-0.9-4-2.6c-0.1-0.2-0.2-0.3-0.4-0.3c-1.8,0-3.6,0-5.3,0c-0.1,0-0.2,0-0.4,0c0-1,0-1.9,0-2.9c0.1,0,0.2,0,0.4,0
			c1.8,0,3.6,0,5.4,0c0.2,0,0.3-0.1,0.4-0.3C13,5.9,14.3,5,16.1,5c1.9,0,3.2,0.9,4,2.6c0.1,0.2,0.2,0.3,0.4,0.3c4.7,0,9.3,0,14,0
			c0.1,0,0.3,0,0.4,0C35,8.8,35,9.8,35,10.8z M17.6,9.3c0-0.8-0.6-1.5-1.4-1.5c-0.8,0-1.5,0.6-1.5,1.4c0,0.8,0.6,1.5,1.4,1.5
			C16.9,10.8,17.6,10.1,17.6,9.3z"/>
		<path class="st0" d="M35,18c0,1,0,1.9,0,2.9c-0.2,0-0.3,0-0.5,0c-1.7,0-3.5,0-5.2,0c-0.2,0-0.3,0.1-0.4,0.3
			c-0.8,1.7-2.1,2.6-4,2.6c-1.9,0-3.2-0.9-4-2.6c-0.1-0.2-0.2-0.3-0.5-0.3c-4.6,0-9.3,0-13.9,0c-0.1,0-0.3,0-0.5,0c0-1,0-1.9,0-2.9
			c0.1,0,0.2,0,0.4,0c4.7,0,9.4,0,14,0c0.3,0,0.4-0.1,0.5-0.3c0.8-1.7,2.1-2.6,4-2.6c1.9,0,3.2,0.9,4,2.6c0.1,0.2,0.2,0.3,0.4,0.3
			c1.8,0,3.6,0,5.4,0C34.7,18,34.8,18,35,18z M24.8,20.9c0.8,0,1.4-0.6,1.4-1.4c0-0.8-0.6-1.4-1.4-1.4c-0.8,0-1.4,0.6-1.4,1.4
			C23.4,20.3,24,20.9,24.8,20.9z"/>
	</g>
</g>
</svg>
