<?xml version="1.0" encoding="utf-8"?>
<!-- Generator: Adobe Illustrator 22.0.1, SVG Export Plug-In . SVG Version: 6.00 Build 0)  -->
<svg version="1.1" id="Layer_1" xmlns="http://www.w3.org/2000/svg" xmlns:xlink="http://www.w3.org/1999/xlink" x="0px" y="0px"
	 viewBox="0 0 35.9 35.8" style="enable-background:new 0 0 35.9 35.8;" xml:space="preserve">
<style type="text/css">
	.st0{display:none;fill:#FFFFFF;}
	.st1{display:none;fill:none;stroke:#221F1F;stroke-miterlimit:10;}
	.st2{display:none;fill:none;stroke:#221F1F;stroke-width:2;stroke-miterlimit:10;}
	.st3{fill:#3AF1A7;}
</style>
<path class="st0" d="M16.9,16.8c0-0.8,0.6-1.5,1.4-1.5s1.4,0.6,1.4,1.5c0,0.8-0.6,1.5-1.4,1.5S16.9,17.7,16.9,16.8"/>
<path class="st1" d="M16.9,16.8c0-0.8,0.6-1.5,1.4-1.5s1.4,0.6,1.4,1.5c0,0.8-0.6,1.5-1.4,1.5S16.9,17.7,16.9,16.8z"/>
<path class="st0" d="M21.8,16.8c0-0.8,0.6-1.5,1.4-1.5s1.4,0.6,1.4,1.5c0,0.8-0.6,1.5-1.4,1.5S21.8,17.7,21.8,16.8"/>
<path class="st1" d="M21.8,16.8c0-0.8,0.6-1.5,1.4-1.5s1.4,0.6,1.4,1.5c0,0.8-0.6,1.5-1.4,1.5S21.8,17.7,21.8,16.8z"/>
<ellipse class="st2" cx="18.2" cy="18.2" rx="16.2" ry="16.2"/>
<path class="st3" d="M18.1,17.5c-3.5,0-6.4-2.9-6.4-6.4s2.9-6.4,6.4-6.4s6.4,2.9,6.4,6.4C24.5,14.7,21.6,17.5,18.1,17.5 M18.1,7
	c-2.3,0-4.2,1.9-4.2,4.2s1.9,4.2,4.2,4.2s4.2-1.9,4.2-4.2C22.2,8.8,20.3,7,18.1,7"/>
<path class="st3" d="M30.5,31.9h-25c-0.6,0-1.1-0.5-1.1-1.1c0-3.7,1.4-7.2,4.1-9.8c1.7-1.7,4.1-2.6,6.5-2.6h6c2.5,0,4.8,1,6.5,2.6
	c2.6,2.6,4.1,6.1,4.1,9.8C31.7,31.4,31.2,31.9,30.5,31.9 M6.8,29.6h22.6c-0.3-2.7-1.4-5.1-3.3-7c-1.3-1.3-3.1-2-4.9-2h-6
	c-1.9,0-3.7,0.7-4.9,2C8.2,24.5,7,27,6.8,29.6z"/>
</svg>
