<?xml version="1.0" encoding="utf-8"?>
<!-- Generator: Adobe Illustrator 22.0.1, SVG Export Plug-In . SVG Version: 6.00 Build 0)  -->
<svg version="1.1" id="Layer_1" xmlns="http://www.w3.org/2000/svg" xmlns:xlink="http://www.w3.org/1999/xlink" x="0px" y="0px"
	 viewBox="0 0 35.9 35.8" style="enable-background:new 0 0 35.9 35.8;" xml:space="preserve">
<style type="text/css">
	.st0{fill:none;stroke:#221F1F;stroke-width:2;stroke-miterlimit:10;}
	.st1{fill:none;stroke:#221F1F;stroke-miterlimit:10;}
	.st2{fill:#FFFFFF;}
</style>
<ellipse transform="matrix(0.1602 -0.9871 0.9871 0.1602 -2.4948 33.3024)" class="st0" cx="18.3" cy="18.1" rx="15.4" ry="15.4"/>
<polygon points="9.7,12 9.7,21.4 13.4,21.4 10,25.8 26.9,20.9 26.9,12 "/>
<polygon class="st1" points="9.7,12 9.7,21.4 13.4,21.4 10,25.8 26.9,20.9 26.9,12 "/>
<path class="st2" d="M12,16.8c0-0.8,0.6-1.5,1.4-1.5c0.8,0,1.4,0.6,1.4,1.5c0,0.8-0.6,1.5-1.4,1.5C12.6,18.3,12,17.7,12,16.8"/>
<path class="st1" d="M12,16.8c0-0.8,0.6-1.5,1.4-1.5c0.8,0,1.4,0.6,1.4,1.5c0,0.8-0.6,1.5-1.4,1.5C12.6,18.3,12,17.7,12,16.8z"/>
<path class="st2" d="M16.9,16.8c0-0.8,0.6-1.5,1.4-1.5c0.8,0,1.4,0.6,1.4,1.5c0,0.8-0.6,1.5-1.4,1.5C17.5,18.3,16.9,17.7,16.9,16.8"
	/>
<path class="st1" d="M16.9,16.8c0-0.8,0.6-1.5,1.4-1.5c0.8,0,1.4,0.6,1.4,1.5c0,0.8-0.6,1.5-1.4,1.5C17.5,18.3,16.9,17.7,16.9,16.8z
	"/>
<path class="st2" d="M21.8,16.8c0-0.8,0.6-1.5,1.4-1.5c0.8,0,1.4,0.6,1.4,1.5c0,0.8-0.6,1.5-1.4,1.5C22.4,18.3,21.8,17.7,21.8,16.8"
	/>
<path class="st1" d="M21.8,16.8c0-0.8,0.6-1.5,1.4-1.5c0.8,0,1.4,0.6,1.4,1.5c0,0.8-0.6,1.5-1.4,1.5C22.4,18.3,21.8,17.7,21.8,16.8z
	"/>
</svg>
