<?xml version="1.0" encoding="utf-8"?>
<!-- Generator: Adobe Illustrator 17.0.0, SVG Export Plug-In . SVG Version: 6.00 Build 0)  -->
<!DOCTYPE svg PUBLIC "-//W3C//DTD SVG 1.1//EN" "http://www.w3.org/Graphics/SVG/1.1/DTD/svg11.dtd">
<svg version="1.1" id="Capa_1" xmlns="http://www.w3.org/2000/svg" xmlns:xlink="http://www.w3.org/1999/xlink" x="0px" y="0px"
	 width="49.25px" height="21.25px" viewBox="0 0 49.25 21.25" enable-background="new 0 0 49.25 21.25" xml:space="preserve">
<path fill="#59595C" d="M21.257,10.69c0,5.3-4.321,9.596-9.65,9.596c-5.332,0-9.652-4.296-9.652-9.596
	c0-5.301,4.32-9.597,9.652-9.597C16.936,1.093,21.257,5.389,21.257,10.69"/>
<path fill="#FFFC1A" d="M12.366,12.28h-2.022v3.424H8.619V6.147h3.747c2.198,0,3.37,1.227,3.37,3.059
	C15.736,11.04,14.564,12.28,12.366,12.28 M12.299,7.67h-1.955v3.087h1.955c1.159,0,1.685-0.621,1.685-1.536
	C13.984,8.304,13.458,7.67,12.299,7.67"/>
<path fill="#59595C" d="M48.178,10.69c0,5.3-4.321,9.596-9.65,9.596c-5.33,0-9.652-4.296-9.652-9.596
	c0-5.301,4.322-9.597,9.652-9.597C43.857,1.093,48.178,5.389,48.178,10.69"/>
<rect x="37.644" y="6.147" fill="#07C4E0" width="1.765" height="9.557"/>
</svg>
