<svg xmlns="http://www.w3.org/2000/svg" viewBox="0 0 23.92 23.9"><defs><style>.cls-1{fill:#231f20;}</style></defs><title>Recurso 41</title><g id="Capa_2" data-name="Capa 2"><g id="Capa_1-2" data-name="Capa 1"><g id="link"><path class="cls-1" d="M12.16,10.76c-3.33-.57-7.11-1.22-10.23,1.91A6.58,6.58,0,0,0,11.23,22a8.41,8.41,0,0,0,2.37-6.81,1.2,1.2,0,1,0-2.41.14,5.91,5.91,0,0,1-1.66,5,4.17,4.17,0,0,1-5.9-5.9c2.25-2.25,5-1.78,8.13-1.24,3.33.57,7.1,1.22,10.23-1.91a6.58,6.58,0,0,0-9.31-9.31,8.4,8.4,0,0,0-2.37,6.81,1.2,1.2,0,0,0,2.41-.14,5.92,5.92,0,0,1,1.66-5,4.17,4.17,0,1,1,5.9,5.9C18,11.77,15.31,11.3,12.16,10.76Z"/></g></g></g></svg>