<?xml version="1.0" encoding="utf-8"?>
<!-- Generator: Adobe Illustrator 17.0.0, SVG Export Plug-In . SVG Version: 6.00 Build 0)  -->
<!DOCTYPE svg PUBLIC "-//W3C//DTD SVG 1.1//EN" "http://www.w3.org/Graphics/SVG/1.1/DTD/svg11.dtd">
<svg version="1.1" id="Capa_1" xmlns="http://www.w3.org/2000/svg" xmlns:xlink="http://www.w3.org/1999/xlink" x="0px" y="0px"
	 width="36.392px" height="40px" viewBox="0 0 36.392 40" enable-background="new 0 0 36.392 40" xml:space="preserve">
<ellipse display="none" fill="none" stroke="#5A5A5D" stroke-miterlimit="10" cx="17.825" cy="19.243" rx="15.825" ry="15.831"/>
<path display="none" fill="none" stroke="#5A5A5D" stroke-miterlimit="10" d="M19.098,14.676h2.185v-2.704h-2.185
	c-1.805,0-3.274,1.59-3.274,3.547v1.361h-2.185v2.71h2.185v6.567h2.729v-6.56h2.73v-2.711h-2.73v-1.393
	C18.547,15.03,18.838,14.676,19.098,14.676z"/>
<ellipse display="none" fill="none" stroke="#5A5A5D" stroke-miterlimit="10" cx="18.812" cy="19.243" rx="15.699" ry="15.705"/>
<path display="none" fill="#5A5A5D" d="M13.824,21.787h0.842v4.178h0.81v-4.178h0.842v-0.71h-2.494
	C13.824,21.077,13.824,21.787,13.824,21.787z M17.97,25.098c-0.069,0.075-0.144,0.144-0.226,0.194
	c-0.082,0.051-0.151,0.076-0.201,0.076c-0.069,0-0.119-0.019-0.151-0.057c-0.031-0.038-0.044-0.1-0.044-0.182v-2.764h-0.722v3.015
	c0,0.214,0.044,0.377,0.125,0.484c0.082,0.107,0.208,0.163,0.377,0.163c0.139,0,0.277-0.038,0.415-0.113
	c0.144-0.075,0.283-0.188,0.415-0.333v0.396h0.728v-3.606h-0.722v2.727C17.964,25.098,17.97,25.098,17.97,25.098z M20.602,22.314
	c-0.113,0-0.219,0.026-0.333,0.088c-0.106,0.057-0.213,0.139-0.307,0.252v-1.571h-0.729v4.882h0.729v-0.277
	c0.094,0.113,0.201,0.189,0.307,0.245c0.107,0.05,0.233,0.076,0.377,0.076c0.214,0,0.377-0.07,0.49-0.201
	c0.113-0.139,0.17-0.333,0.17-0.591V23.22c0-0.296-0.063-0.522-0.182-0.673C21.005,22.39,20.829,22.314,20.602,22.314
	 M20.559,25.116c0,0.113-0.019,0.195-0.063,0.245c-0.044,0.051-0.107,0.075-0.195,0.075c-0.063,0-0.119-0.012-0.176-0.037
	c-0.056-0.025-0.113-0.069-0.17-0.126v-2.242c0.051-0.051,0.101-0.089,0.151-0.107c0.05-0.026,0.101-0.037,0.151-0.037
	c0.094,0,0.169,0.031,0.226,0.093c0.05,0.063,0.076,0.158,0.076,0.277C20.559,23.257,20.559,25.116,20.559,25.116z M22.776,22.27
	c-0.32,0-0.584,0.101-0.791,0.296c-0.202,0.195-0.308,0.453-0.308,0.766v1.621c0,0.346,0.094,0.622,0.276,0.816
	c0.182,0.202,0.44,0.296,0.76,0.296c0.358,0,0.629-0.094,0.811-0.276c0.182-0.188,0.27-0.465,0.27-0.836V24.77h-0.742v0.165
	c0,0.212-0.025,0.344-0.069,0.408c-0.05,0.062-0.131,0.093-0.251,0.093c-0.113,0-0.195-0.037-0.245-0.106
	c-0.05-0.075-0.069-0.207-0.069-0.395v-0.679h1.376v-0.93c0-0.339-0.088-0.603-0.264-0.785C23.36,22.358,23.103,22.27,22.776,22.27
	 M23.059,23.685h-0.635v-0.366c0-0.15,0.025-0.257,0.076-0.32c0.05-0.068,0.132-0.101,0.245-0.101c0.107,0,0.188,0.033,0.238,0.101
	c0.051,0.063,0.076,0.17,0.076,0.32C23.059,23.319,23.059,23.685,23.059,23.685z M18.881,15.411c-0.101,0-0.176,0.025-0.239,0.081
	c-0.062,0.051-0.094,0.126-0.094,0.207v2.161c0,0.108,0.032,0.196,0.088,0.252c0.057,0.063,0.138,0.088,0.245,0.088
	c0.107,0,0.195-0.031,0.264-0.095c0.063-0.062,0.094-0.144,0.094-0.251v-2.161c0-0.088-0.031-0.157-0.1-0.207
	C19.076,15.436,18.988,15.411,18.881,15.411 M25.653,12.427H11.977c-0.993,0-1.809,0.81-1.809,1.809v3.844
	c0,0.993,0.81,1.81,1.809,1.81h13.676c0.993,0,1.81-0.811,1.81-1.81v-3.844C27.457,13.237,26.646,12.427,25.653,12.427
	 M16.582,16.561v2.229h-0.911v-2.129l-1.087-3.248h0.917l0.591,2.148h0.056l0.566-2.148h0.93L16.582,16.561z M20.069,17.804
	c0,0.34-0.107,0.603-0.315,0.798c-0.213,0.195-0.502,0.289-0.867,0.289c-0.351,0-0.64-0.101-0.854-0.301
	c-0.214-0.201-0.32-0.465-0.32-0.805v-2.054c0-0.308,0.106-0.552,0.326-0.735c0.22-0.183,0.515-0.276,0.88-0.276
	c0.333,0,0.609,0.093,0.823,0.289c0.213,0.194,0.32,0.439,0.32,0.741v2.054H20.069z M23.04,18.79h-0.811v-0.439
	c-0.15,0.163-0.301,0.283-0.464,0.371c-0.164,0.081-0.321,0.125-0.472,0.125c-0.188,0-0.326-0.057-0.427-0.176
	c-0.094-0.119-0.144-0.295-0.144-0.534V14.82h0.81v3.04c0,0.095,0.019,0.164,0.05,0.201c0.032,0.044,0.088,0.064,0.164,0.064
	c0.056,0,0.138-0.025,0.226-0.082c0.088-0.057,0.176-0.126,0.251-0.214v-3.016h0.811L23.04,18.79z"/>
<ellipse display="none" fill="none" stroke="#5A5A5D" stroke-miterlimit="10" cx="17.073" cy="19.078" rx="17.073" ry="17.079"/>
<path display="none" fill="none" stroke="#5A5A5D" stroke-miterlimit="10" d="M17.073,11.544c2.454,0,2.745,0.01,3.714,0.054
	c0.896,0.041,1.383,0.19,1.707,0.316c0.429,0.167,0.735,0.367,1.056,0.688c0.322,0.321,0.521,0.628,0.688,1.057
	c0.126,0.324,0.275,0.81,0.316,1.707c0.045,0.968,0.054,1.259,0.054,3.713c0,2.455-0.009,2.745-0.054,3.714
	c-0.041,0.896-0.19,1.382-0.316,1.706c-0.167,0.429-0.366,0.736-0.687,1.057c-0.322,0.322-0.628,0.521-1.057,0.687
	c-0.324,0.126-0.811,0.276-1.707,0.317c-0.969,0.045-1.26,0.054-3.714,0.054c-2.454,0-2.745-0.009-3.714-0.054
	c-0.896-0.041-1.383-0.191-1.707-0.317c-0.429-0.166-0.735-0.365-1.057-0.687c-0.321-0.321-0.52-0.628-0.687-1.057
	c-0.126-0.324-0.276-0.81-0.316-1.706c-0.045-0.969-0.054-1.259-0.054-3.714c0-2.454,0.009-2.745,0.054-3.713
	c0.04-0.897,0.19-1.383,0.316-1.707c0.167-0.429,0.366-0.736,0.687-1.057c0.322-0.321,0.628-0.521,1.057-0.688
	c0.324-0.126,0.811-0.275,1.707-0.316C14.328,11.554,14.619,11.544,17.073,11.544 M17.073,9.888c-2.496,0-2.809,0.011-3.79,0.056
	c-0.978,0.045-1.646,0.2-2.231,0.426c-0.604,0.236-1.116,0.55-1.627,1.061s-0.826,1.023-1.061,1.628
	c-0.227,0.584-0.382,1.253-0.427,2.23c-0.045,0.981-0.055,1.294-0.055,3.79c0,2.497,0.01,2.809,0.055,3.789
	c0.045,0.979,0.2,1.647,0.427,2.231c0.235,0.604,0.55,1.117,1.061,1.628c0.511,0.512,1.023,0.825,1.627,1.06
	c0.585,0.227,1.253,0.383,2.231,0.427c0.981,0.045,1.294,0.056,3.79,0.056c2.496,0,2.809-0.011,3.789-0.056
	c0.979-0.044,1.647-0.2,2.232-0.427c0.604-0.235,1.116-0.548,1.627-1.06c0.511-0.511,0.826-1.024,1.06-1.628
	c0.228-0.584,0.383-1.252,0.428-2.231c0.044-0.98,0.055-1.292,0.055-3.789c0-2.496-0.011-2.809-0.055-3.79
	c-0.045-0.977-0.2-1.646-0.428-2.23c-0.234-0.605-0.549-1.117-1.06-1.628c-0.511-0.511-1.023-0.825-1.627-1.061
	c-0.585-0.226-1.253-0.381-2.232-0.426C19.882,9.899,19.569,9.888,17.073,9.888z"/>
<ellipse fill="none" stroke="#3AF1A7" stroke-miterlimit="10" cx="18.237" cy="20.324" rx="15.991" ry="15.997"/>
<path fill="none" stroke="#3AF1A7" stroke-miterlimit="10" d="M18.319,12.707c2.454,0,2.745,0.01,3.714,0.054
	c0.896,0.041,1.383,0.19,1.707,0.316c0.429,0.167,0.735,0.367,1.056,0.688c0.322,0.321,0.521,0.628,0.688,1.057
	c0.126,0.324,0.275,0.81,0.316,1.707c0.045,0.968,0.054,1.259,0.054,3.713c0,2.455-0.009,2.745-0.054,3.714
	c-0.041,0.896-0.19,1.382-0.316,1.706c-0.167,0.429-0.366,0.736-0.687,1.057c-0.322,0.322-0.628,0.521-1.057,0.687
	c-0.324,0.126-0.811,0.276-1.707,0.317c-0.969,0.045-1.26,0.054-3.714,0.054c-2.454,0-2.745-0.009-3.714-0.054
	c-0.896-0.041-1.383-0.191-1.707-0.317c-0.429-0.166-0.735-0.365-1.057-0.687c-0.321-0.321-0.52-0.628-0.687-1.057
	c-0.126-0.324-0.276-0.81-0.316-1.706c-0.045-0.969-0.054-1.259-0.054-3.714c0-2.454,0.009-2.745,0.054-3.713
	c0.04-0.897,0.19-1.383,0.316-1.707c0.167-0.429,0.366-0.736,0.687-1.057c0.322-0.321,0.628-0.521,1.057-0.688
	c0.324-0.126,0.811-0.275,1.707-0.316C15.574,12.717,15.865,12.707,18.319,12.707 M18.319,11.051c-2.496,0-2.809,0.011-3.79,0.056
	c-0.978,0.045-1.646,0.2-2.231,0.426c-0.604,0.236-1.116,0.55-1.627,1.061s-0.826,1.023-1.061,1.628
	c-0.227,0.584-0.382,1.253-0.427,2.23c-0.045,0.981-0.055,1.294-0.055,3.79c0,2.497,0.01,2.809,0.055,3.789
	c0.045,0.979,0.2,1.647,0.427,2.231c0.235,0.604,0.55,1.117,1.061,1.628c0.511,0.512,1.023,0.825,1.627,1.06
	c0.585,0.227,1.253,0.383,2.231,0.427c0.981,0.045,1.294,0.056,3.79,0.056c2.496,0,2.809-0.011,3.789-0.056
	c0.979-0.044,1.647-0.2,2.232-0.427c0.604-0.235,1.116-0.548,1.627-1.06c0.511-0.511,0.826-1.024,1.06-1.628
	c0.228-0.584,0.383-1.252,0.428-2.231c0.044-0.98,0.055-1.292,0.055-3.789c0-2.496-0.011-2.809-0.055-3.79
	c-0.045-0.977-0.2-1.646-0.428-2.23c-0.234-0.605-0.549-1.117-1.06-1.628c-0.511-0.511-1.023-0.825-1.627-1.061
	c-0.585-0.226-1.253-0.381-2.232-0.426C21.128,11.062,20.815,11.051,18.319,11.051z"/>
<path fill="none" stroke="#3AF1A7" stroke-miterlimit="10" d="M18.319,15.523c-2.607,0-4.72,2.112-4.72,4.72
	c0,2.606,2.113,4.718,4.72,4.718c2.607,0,4.72-2.112,4.72-4.718C23.039,17.635,20.926,15.523,18.319,15.523z M18.319,23.306
	c-1.692,0-3.064-1.372-3.064-3.063c0-1.693,1.372-3.065,3.064-3.065c1.692,0,3.064,1.372,3.064,3.065
	C21.383,21.934,20.011,23.306,18.319,23.306z"/>
</svg>
