<?xml version="1.0" encoding="utf-8"?>
<!-- Generator: Adobe Illustrator 17.0.0, SVG Export Plug-In . SVG Version: 6.00 Build 0)  -->
<!DOCTYPE svg PUBLIC "-//W3C//DTD SVG 1.1//EN" "http://www.w3.org/Graphics/SVG/1.1/DTD/svg11.dtd">
<svg version="1.1" id="Capa_1" xmlns="http://www.w3.org/2000/svg" xmlns:xlink="http://www.w3.org/1999/xlink" x="0px" y="0px"
	 width="35.75px" height="35.833px" viewBox="0 0 35.75 35.833" enable-background="new 0 0 35.75 35.833" xml:space="preserve">
<path fill="#F2F2F2" d="M35.183,18.109c0,9.563-7.752,17.315-17.315,17.315S0.552,27.672,0.552,18.109
	c0-9.563,7.753-17.315,17.316-17.315S35.183,8.546,35.183,18.109"/>
<polygon fill="#4DBA72" points="10.866,13.307 16.099,13.307 16.099,17.945 10.866,17.945 10.866,21.253 16.099,21.253 
	16.099,27.877 19.617,27.877 19.617,21.253 24.87,21.249 24.87,17.945 19.617,17.945 19.617,13.307 24.87,13.303 24.87,9.997 
	10.866,9.997 "/>
<rect x="-9.333" y="-6" fill="none" width="1359.8" height="766.66"/>
</svg>
