<?xml version="1.0" encoding="utf-8"?>
<!-- Generator: Adobe Illustrator 17.0.0, SVG Export Plug-In . SVG Version: 6.00 Build 0)  -->
<!DOCTYPE svg PUBLIC "-//W3C//DTD SVG 1.1//EN" "http://www.w3.org/Graphics/SVG/1.1/DTD/svg11.dtd">
<svg version="1.1" id="Capa_1" xmlns="http://www.w3.org/2000/svg" xmlns:xlink="http://www.w3.org/1999/xlink" x="0px" y="0px"
	 width="132.143px" height="137.143px" viewBox="0 0 132.143 137.143" enable-background="new 0 0 132.143 137.143"
	 xml:space="preserve">
<path fill="none" stroke="#F2F2F2" stroke-width="2" stroke-miterlimit="10" d="M125.999,71.601
	c0,33.825-27.42,61.246-61.245,61.246c-33.825,0-61.246-27.421-61.246-61.246c0-33.824,27.421-61.245,61.246-61.245
	C98.579,10.356,125.999,37.777,125.999,71.601"/>
<polygon fill="none" stroke="#F2F2F2" stroke-width="2" stroke-miterlimit="10" points="39.987,54.619 58.497,54.619 58.497,71.02 
	39.987,71.02 39.987,82.725 58.497,82.725 58.496,106.153 70.937,106.153 70.937,82.724 89.518,82.71 89.518,71.02 70.937,71.02 
	70.937,54.617 89.518,54.603 89.518,42.913 39.987,42.913 "/>
</svg>
