<?xml version="1.0" encoding="utf-8"?>
<!-- Generator: Adobe Illustrator 22.0.1, SVG Export Plug-In . SVG Version: 6.00 Build 0)  -->
<svg version="1.1" id="Layer_1" xmlns="http://www.w3.org/2000/svg" xmlns:xlink="http://www.w3.org/1999/xlink" x="0px" y="0px"
	 viewBox="0 0 38.5 37.5" style="enable-background:new 0 0 38.5 37.5;" xml:space="preserve">
<style type="text/css">
	.st0{fill:#F1F1F1;}
	.st1{fill:#414042;}
</style>
<path class="st0" d="M36.7,18.9c0,9.6-7.8,17.3-17.3,17.3c-9.6,0-17.3-7.8-17.3-17.3c0-9.6,7.8-17.3,17.3-17.3
	C29,1.6,36.7,9.4,36.7,18.9"/>
<polygon class="st1" points="12.4,14.1 17.7,14.1 17.7,18.8 12.4,18.8 12.4,22.1 17.7,22.1 17.7,28.7 21.2,28.7 21.2,22.1 
	26.4,22.1 26.4,18.8 21.2,18.8 21.2,14.1 26.4,14.1 26.4,10.8 12.4,10.8 "/>
</svg>
