<?xml version="1.0" encoding="utf-8"?>
<!-- Generator: Adobe Illustrator 17.0.0, SVG Export Plug-In . SVG Version: 6.00 Build 0)  -->
<!DOCTYPE svg PUBLIC "-//W3C//DTD SVG 1.1//EN" "http://www.w3.org/Graphics/SVG/1.1/DTD/svg11.dtd">
<svg version="1.1" id="Capa_1" xmlns="http://www.w3.org/2000/svg" xmlns:xlink="http://www.w3.org/1999/xlink" x="0px" y="0px"
	 width="175.714px" height="177.143px" viewBox="0 0 175.714 177.143" enable-background="new 0 0 175.714 177.143"
	 xml:space="preserve">
<path display="none" fill="#5A5A5D" d="M170.808,88.565c0,45.513-37.105,82.409-82.876,82.409c-45.77,0-82.875-36.896-82.875-82.409
	c0-45.512,37.105-82.408,82.875-82.408C133.703,6.157,170.808,43.053,170.808,88.565"/>
<path display="none" fill="#E90E8B" d="M27.066,102.778c3.898-4.848,7.377-9.245,10.97-13.546c0.393-0.471,1.443-0.539,2.19-0.546
	c4.77-0.041,9.548-0.173,14.307,0.058c2.398,0.117,3.81-0.818,5.267-2.537c7.615-8.985,15.232-17.971,23.048-26.781
	c11.94-13.457,27.416-19.763,44.967-21.654c1.722-0.187,3.457-0.252,5.187-0.356c0.348-0.02,0.701,0.042,1.57,0.103
	c-0.388,3.861-0.59,7.651-1.177,11.381c-2.101,13.34-6.863,25.628-16.286,35.483c-6.276,6.564-13.325,12.396-20.132,18.44
	c-3.943,3.5-8.059,6.808-12.166,10.118c-1.076,0.867-1.463,1.762-1.424,3.128c0.15,5.272,0.216,10.549,0.214,15.823
	c0,0.86-0.229,2.051-0.812,2.526c-4.24,3.465-8.598,6.787-13.332,10.474c-0.79-3.47-1.481-6.454-2.148-9.444
	c-0.393-1.761-0.729-3.535-1.128-5.295c-0.476-2.098-1.296-2.585-3.391-1.865c-1.567,0.539-3.026,1.464-4.622,1.824
	c-1.224,0.275-2.857,0.385-3.842-0.207c-5.02-3.023-9.115-7.108-12.164-12.112c-0.6-0.984-0.532-2.605-0.273-3.827
	c0.323-1.526,1.233-2.918,1.764-4.413c0.787-2.222,0.209-3.154-2.072-3.644C37.002,104.926,32.424,103.934,27.066,102.778
	 M109.758,70.934c-0.004-4.845-4.021-8.86-8.813-8.811c-4.774,0.05-8.741,4.124-8.716,8.954c0.023,4.672,4.078,8.711,8.736,8.701
	C105.818,79.767,109.762,75.8,109.758,70.934"/>
<path display="none" fill="#5A5A5D" d="M169.477,88.41c0,45.348-36.971,82.111-82.576,82.111c-45.605,0-82.576-36.763-82.576-82.111
	c0-45.349,36.971-82.111,82.576-82.111C132.506,6.299,169.477,43.061,169.477,88.41"/>
<path display="none" fill="#4F72B8" d="M125.648,42.551c3.607,1.325,4.64,3.182,3.963,7.069c-0.533,3.062-1.713,5.892-3.077,8.657
	c-3.348,6.787-7.582,13.04-11.699,19.364c-2.673,4.107-5.219,8.298-7.97,12.352c-2.767,4.078-3.241,8.498-2.621,13.231
	c0.66,5.033,1.226,10.081,1.69,15.136c0.172,1.872,0.064,3.796-0.14,5.671c-0.309,2.844-1.229,4.298-4.005,6.745
	c-0.247-0.399-0.443-0.894-0.786-1.24c-4.007-4.041-8.041-8.056-12.056-12.089c-0.722-0.727-1.621-1.161-2.505-0.693
	c-0.641,0.34-1.219,1.088-1.478,1.784c-0.327,0.878,0.305,1.611,0.939,2.243c3.929,3.916,7.846,7.844,11.777,11.759
	c0.379,0.377,0.825,0.687,1.488,1.233c-1.007,0.899-1.818,1.643-2.65,2.361c-0.693,0.599-1.309,0.267-1.93-0.183
	c-3.418-2.478-6.843-4.946-10.268-7.415c-4.12-2.972-8.241-5.943-12.364-8.911c-0.228-0.164-0.475-0.299-0.94-0.591
	c-0.273,0.365-0.515,0.776-0.839,1.106c-1.483,1.516-1.491,1.508-3.161,0.196c-2.903,1.899-5.623,1.254-8.19-0.737
	c-0.479-0.371-0.83-0.37-1.336-0.108c-2,1.034-4.022,2.024-6.031,3.042c-0.57,0.288-1.25,0.593-1.619-0.055
	c-0.239-0.418-0.199-1.174,0.016-1.642c0.908-1.981,1.904-3.923,2.923-5.851c0.331-0.625,0.309-1.053-0.146-1.619
	c-1.325-1.654-2.064-3.54-1.651-5.686c0.158-0.82,0.608-1.584,0.966-2.476c-2.407-2.038,0.524-2.735,1.209-4.19
	c-1.555-2.164-3.152-4.393-4.756-6.618c-3.913-5.427-7.83-10.852-11.744-16.278c-1.135-1.575-1.124-1.602,0.197-2.956
	c0.547-0.562,1.051-1.166,1.643-1.825c2.788,2.801,5.435,5.462,8.085,8.121c1.667,1.674,3.332,3.35,5.01,5.013
	c1.194,1.184,2.514,1.287,3.495,0.303c0.966-0.972,0.853-2.326-0.318-3.499c-4.046-4.054-8.097-8.102-12.152-12.145
	c-0.253-0.251-0.568-0.439-0.866-0.667c1.914-2.718,4.462-3.825,7.493-4.055c4.171-0.316,8.282,0.263,12.406,0.743
	c3.834,0.445,7.676,0.833,11.522,1.168c2.413,0.211,4.721-0.307,6.791-1.58c4.658-2.867,9.32-5.73,13.911-8.703
	c6.394-4.141,12.68-8.454,19.497-11.895c3.005-1.517,6.067-2.898,9.435-3.425c0.095-0.014,0.177-0.108,0.264-0.165H125.648z
	 M58.429,114.865c0.216-0.157,0.547-0.363,0.839-0.614c3.229-2.772,6.451-5.551,9.677-8.328c3.876-3.336,7.757-6.666,11.629-10.008
	c0.905-0.781,0.911-1.047,0.078-1.902c-0.749-0.768-1.517-1.518-2.279-2.273c-0.948-0.939-1.14-0.926-2.032,0.109
	c-6.065,7.047-12.132,14.094-18.196,21.143c-0.209,0.242-0.444,0.483-0.574,0.767C57.308,114.336,57.698,114.908,58.429,114.865
	 M121.005,59.725c-0.624-2.068-1.222-4.121-1.882-6.154c-0.075-0.233-0.47-0.417-0.754-0.519c-5.5-1.964-5.501-1.961-10.708,0.609
	c-0.031,0.015-0.077,0.018-0.097,0.043c-0.311,0.385-0.835,0.76-0.86,1.166c-0.02,0.322,0.507,0.821,0.901,1.001
	c1.816,0.833,3.683,1.552,5.501,2.38c0.403,0.184,0.81,0.586,0.994,0.989c0.801,1.751,1.485,3.555,2.292,5.304
	c0.212,0.46,0.764,1.139,1.07,1.094c0.466-0.067,0.99-0.601,1.251-1.07c0.711-1.276,1.302-2.619,1.931-3.94
	C120.78,60.343,120.88,60.04,121.005,59.725"/>
<path fill="#5A5A5D" d="M169.941,87.73c0,45.504-37.098,82.394-82.86,82.394c-45.762,0-82.86-36.89-82.86-82.394
	c0-45.504,37.098-82.394,82.86-82.394C132.843,5.336,169.941,42.226,169.941,87.73"/>
<path fill="#EF4823" d="M39.287,89.037c1.552-1.599,3.08-3.223,4.676-4.776c0.315-0.306,0.895-0.479,1.354-0.48
	c10.013-0.027,20.026-0.021,30.039-0.019c0.119,0,0.237,0.039,0.422,0.071c-1.402,4.675-0.568,8.874,2.877,12.317
	c3.446,3.443,7.644,4.281,12.397,2.851v1.092c-0.002,8.272,0.011,16.544-0.028,24.816c-0.003,0.741-0.215,1.536-0.532,2.212
	c-1.069,2.275-2.187,4.531-3.38,6.744c-0.345,0.641-1.007,1.111-1.524,1.659h-2.987c-0.235-0.057-0.468-0.148-0.706-0.169
	c-4.25-0.355-8.318-1.437-12.231-3.102c-8.282-3.524-15.096-8.962-20.601-16.038c-4.371-5.618-7.494-11.859-8.951-18.865
	c-0.353-1.697-0.554-3.425-0.825-5.139V89.037z M57.161,103.634c3.337,0.008,5.995-2.609,6.022-5.931
	c0.026-3.27-2.695-6.006-5.974-6.008c-3.238-0.003-5.947,2.681-5.973,5.914C51.21,100.931,53.859,103.626,57.161,103.634
	 M63.189,105.617c-0.019,3.299,2.653,5.989,5.963,6.005c3.241,0.016,5.959-2.666,5.979-5.9c0.021-3.321-2.637-6.033-5.922-6.041
	C65.875,99.674,63.207,102.304,63.189,105.617 M71.168,117.572c-0.01,3.317,2.65,5.997,5.954,5.999
	c3.279,0.001,6.004-2.731,5.984-6.001c-0.02-3.251-2.695-5.928-5.938-5.942C73.841,111.612,71.177,114.252,71.168,117.572"/>
<path fill="#EF4823" d="M117.512,39.936c1.678,1.604,3.398,3.168,5.014,4.834c0.691,0.713,0.558,1.776-0.194,2.535
	c-3.239,3.268-6.505,6.509-9.804,9.803c-2.887-2.359-6.007-4.316-9.412-5.812c-3.404-1.497-6.951-2.48-10.685-3.162
	c0.325-0.12,0.646-0.25,0.974-0.36c7.41-2.502,14.821-5.001,22.231-7.505c0.26-0.088,0.504-0.221,0.756-0.333H117.512z"/>
<path fill="#EF4823" d="M134.875,58.419c-0.986,2.837-1.988,5.667-2.957,8.51c-1.64,4.815-3.258,9.638-4.886,14.458
	c-0.108,0.317-0.227,0.631-0.429,0.962c-1.156-7.489-4.068-14.18-8.901-20.06c0.229-0.246,0.427-0.473,0.64-0.685
	c2.944-2.947,5.887-5.892,8.835-8.834c1.231-1.229,2.204-1.231,3.443-0.005c1.148,1.136,2.295,2.275,3.421,3.434
	c0.318,0.328,0.558,0.732,0.834,1.1V58.419z"/>
<path fill="#EF4823" d="M134.875,99.119c-0.362,1.013-0.647,2.063-1.104,3.03c-0.814,1.727-2.133,3.014-3.826,4.06
	c-2.716-5.999-5.389-11.903-8.091-17.874c2.441-0.952,4.802-0.78,7.09,0.256c3.091,1.399,4.987,3.812,5.739,7.124
	c0.046,0.205,0.127,0.402,0.192,0.603V99.119z"/>
<path fill="#EF4823" d="M99.027,88.41c3.8,1.625,7.486,3.186,11.154,4.787c0.542,0.237,0.959,0.213,1.47-0.045
	c2.133-1.076,4.284-2.116,6.547-3.227c2.669,5.897,5.324,11.76,8.017,17.711c-0.834,0.268-1.59,0.522-2.352,0.755
	c-3.294,1.01-6.596,1.998-9.881,3.033c-0.833,0.262-1.555,0.186-2.325-0.202c-5.296-2.669-10.6-5.323-15.915-7.955
	c-0.527-0.26-0.711-0.563-0.698-1.137c0.035-1.648-0.011-3.297,0.03-4.944c0.009-0.362,0.146-0.811,0.389-1.062
	c1.942-2.017,3.153-4.365,3.435-7.17C98.912,88.807,98.965,88.664,99.027,88.41"/>
<path fill="#EF4823" d="M90.36,73.381c-1.17-7.098-2.345-14.224-3.544-21.496c7.127-0.02,13.573,1.9,19.436,5.605
	C100.957,62.784,95.692,68.05,90.36,73.381"/>
<path fill="#EF4823" d="M101.215,84.701c5.349-5.357,10.697-10.715,16.038-16.063c2.393,2.867,5.191,10.648,5.438,15.343
	c-3.239,0.491-5.937,2.353-8.878,3.645c-0.233,0.102-0.555,0.11-0.807,0.048c-3.858-0.957-7.712-1.933-11.567-2.906
	C101.33,84.741,101.223,84.703,101.215,84.701"/>
<path fill="#EF4823" d="M86.759,76.002c-0.539-0.244-0.919-0.311-1.144-0.535c-5.893-5.888-11.771-11.792-17.65-17.695
	c-0.041-0.042-0.059-0.108-0.125-0.232c4.54-2.975,9.71-4.393,14.862-6.141C84.05,59.575,85.377,67.621,86.759,76.002"/>
<path fill="#EF4823" d="M95.055,87.734c0.002,4.357-3.603,7.964-7.963,7.967c-4.371,0.003-8.002-3.606-7.988-7.94
	c0.015-4.438,3.574-7.999,8.011-8.014C91.446,79.731,95.053,83.359,95.055,87.734"/>
<path fill="#EF4823" d="M114.876,64.952c-5.874,5.871-11.563,11.558-17.313,17.306c-1.165-2.127-2.806-3.855-4.916-4.967
	c5.707-5.709,11.404-11.408,17.251-17.258C111.497,61.612,113.182,63.278,114.876,64.952"/>
<path fill="#EF4823" d="M59.029,65.152c1.886-1.93,3.547-3.628,5.148-5.266c5.922,5.887,11.604,11.536,17.274,17.172
	c-0.992,0.834-1.991,1.695-3.018,2.52c-0.169,0.135-0.461,0.151-0.698,0.159c-3.671,0.123-3.671,0.12-6.273-2.481
	c-3.805-3.805-7.607-7.613-11.42-11.409C59.803,65.609,59.48,65.457,59.029,65.152"/>
<path fill="#EF4823" d="M67.922,79.699H52.276c0.879-4.055,2.424-7.753,4.559-11.141C60.547,72.289,64.239,75.999,67.922,79.699"/>
<path fill="#EF4823" d="M95.111,122.54v-15.213c0.778,0.466,1.536,0.748,2.066,1.265c3.009,2.927,5.963,5.908,8.934,8.873
	c0.084,0.084,0.151,0.186,0.296,0.369C102.934,120.089,99.207,121.587,95.111,122.54"/>
<path fill="#EF4823" d="M57.248,95.715c1.077,0.017,1.952,0.896,1.957,1.964c0.004,1.097-0.94,2.02-2.037,1.993
	c-1.067-0.025-1.953-0.922-1.959-1.98C55.204,96.592,56.126,95.697,57.248,95.715"/>
<path fill="#EF4823" d="M69.183,107.643c-1.043,0.021-1.976-0.863-2.028-1.924c-0.052-1.065,0.893-2.059,1.972-2.076
	c1.046-0.016,1.982,0.875,2.025,1.927C71.197,106.654,70.279,107.621,69.183,107.643"/>
<path fill="#EF4823" d="M79.09,117.585c0.005,1.087-0.84,1.972-1.916,2.006c-1.097,0.035-2.035-0.879-2.04-1.987
	c-0.004-1.109,0.925-2.032,2.022-2.008C78.226,115.619,79.086,116.503,79.09,117.585"/>
</svg>
