<svg xmlns="http://www.w3.org/2000/svg" viewBox="0 0 13.99 25.26"><defs><style>.cls-1{fill:#3af1a7;stroke:#3af1a7;stroke-miterlimit:10;stroke-width:0.5px;}</style></defs><title>Recurso 12</title><g id="Capa_2" data-name="Capa 2"><g id="Capa_1-2" data-name="Capa 1"><g id="rafwoF.tif"><path class="cls-1" d="M2.17,25A3.5,3.5,0,0,1,.25,21.46c.06-6,0-12,0-18,0-2.24,1-3.22,3.25-3.22h7.35A2.63,2.63,0,0,1,13.72,3c0,6.41,0,12.83,0,19.24A3.07,3.07,0,0,1,11.84,25ZM12.63,12.62q0-4.74,0-9.47c0-1.37-.47-1.85-1.86-1.86q-3.77,0-7.54,0c-1.4,0-1.85.47-1.85,1.86q0,9.47,0,18.95c0,1.38.45,1.84,1.86,1.85Q7,24,10.78,24c1.4,0,1.85-.48,1.85-1.86Q12.64,17.36,12.63,12.62Z"/><path class="cls-1" d="M12.35,3.23v1H1.67l-.05-1Z"/><path class="cls-1" d="M1.68,22V21H12.34v1Z"/></g></g></g></svg>