<svg xmlns="http://www.w3.org/2000/svg" viewBox="0 0 33.48 13.2"><defs><style>.cls-1{fill:#3af1a7;}</style></defs><title>Recurso 55</title><g id="Capa_2" data-name="Capa 2"><g id="Capa_1-2" data-name="Capa 1"><path class="cls-1" d="M5.18,8.47H2.38V13.2H0V0H5.18c3,0,4.65,1.69,4.65,4.23S8.21,8.47,5.18,8.47ZM5.08,2.1H2.38V6.37h2.7c1.6,0,2.33-.86,2.33-2.12A2,2,0,0,0,5.08,2.1Z"/><path class="cls-1" d="M20.46,11.78a5.05,5.05,0,0,1-3.71,1.42H11.62V0h5.14a5.05,5.05,0,0,1,3.71,1.41C21.82,2.81,22,4.77,22,6.59S21.82,10.39,20.46,11.78ZM18.62,2.9a2.62,2.62,0,0,0-1.86-.74H14V11h2.74a2.61,2.61,0,0,0,1.86-.75c.93-.93.95-2.49.95-3.7S19.55,3.83,18.62,2.9Z"/><path class="cls-1" d="M26.76,2.18V5.71h6V7.89h-6V13.2h-2.4V0h9.12V2.18Z"/></g></g></svg>