<?xml version="1.0" encoding="utf-8"?>
<!-- Generator: Adobe Illustrator 17.0.0, SVG Export Plug-In . SVG Version: 6.00 Build 0)  -->
<!DOCTYPE svg PUBLIC "-//W3C//DTD SVG 1.1//EN" "http://www.w3.org/Graphics/SVG/1.1/DTD/svg11.dtd">
<svg version="1.1" id="Capa_1" xmlns="http://www.w3.org/2000/svg" xmlns:xlink="http://www.w3.org/1999/xlink" x="0px" y="0px"
	 width="232.627px" height="236.864px" viewBox="0 0 232.627 236.864" enable-background="new 0 0 232.627 236.864"
	 xml:space="preserve">
<path fill="#F1F1F1" d="M230.75,117.391c0,62.704-50.832,113.536-113.536,113.536c-62.705,0-113.536-50.832-113.536-113.536
	S54.509,3.855,117.214,3.855C179.918,3.855,230.75,54.687,230.75,117.391"/>
<g>
	<defs>
		<rect id="SVGID_1_" x="-390.492" y="-100.407" width="1366" height="822.115"/>
	</defs>
	<clipPath id="SVGID_2_">
		<use xlink:href="#SVGID_1_"  overflow="visible"/>
	</clipPath>
	<path clip-path="url(#SVGID_2_)" d="M113.727,122.599c-6.545,0-13.09,0-19.635,0c-2.574,0-4.739-1.709-5.313-4.216
		c-0.089-0.386-0.131-0.791-0.132-1.188c-0.007-8.343-0.008-16.685-0.004-25.028c0.002-2.861,2.199-5.195,5.058-5.392
		c0.161-0.011,0.322-0.007,0.483-0.007c2.891-0.001,5.781-0.002,8.672,0.003c0.144,0,0.22-0.037,0.276-0.178
		c0.324-0.811,0.752-1.557,1.405-2.156c0.874-0.804,1.893-1.252,3.091-1.252c4.061-0.001,8.122-0.004,12.182,0.002
		c1.523,0.002,2.712,0.684,3.65,1.85c0.375,0.466,0.626,1.001,0.856,1.545c0.06,0.142,0.131,0.19,0.287,0.19
		c2.969-0.005,5.937-0.013,8.905,0c2.7,0.011,5.025,2.163,5.268,4.853c0.019,0.208,0.029,0.417,0.029,0.625
		c0.002,8.289,0.002,16.578,0.001,24.867c0,2.327-1.315,4.268-3.483,5.129c-0.616,0.245-1.261,0.354-1.925,0.354
		c-2.538-0.002-5.076-0.001-7.614-0.001H113.727z M113.705,119.016h8.259c3.792,0,7.584,0.003,11.376-0.006
		c0.273-0.001,0.568-0.045,0.816-0.153c0.741-0.324,1.068-0.93,1.068-1.728c-0.001-8.294-0.001-16.589-0.001-24.883
		c0-0.06,0.001-0.12-0.002-0.179c-0.017-0.361-0.121-0.694-0.336-0.985c-0.386-0.52-0.913-0.734-1.553-0.733
		c-3.684,0.004-7.369,0.001-11.053,0.006c-0.157,0-0.224-0.05-0.286-0.19c-0.364-0.831-0.734-1.657-1.113-2.481
		c-0.089-0.193-0.201-0.381-0.331-0.548c-0.197-0.255-0.467-0.371-0.797-0.371c-4.018,0.004-8.037,0.004-12.056,0
		c-0.338,0-0.607,0.125-0.809,0.383c-0.117,0.148-0.217,0.315-0.295,0.487c-0.383,0.834-0.762,1.671-1.128,2.513
		c-0.072,0.166-0.158,0.207-0.33,0.207c-3.678-0.006-7.357-0.005-11.035-0.004c-1.107,0.001-1.873,0.742-1.873,1.822
		c-0.001,8.342-0.001,16.684,0.003,25.027c0,0.199,0.032,0.407,0.092,0.597c0.24,0.761,0.913,1.219,1.768,1.219
		C100.627,119.016,107.166,119.016,113.705,119.016"/>
	<path clip-path="url(#SVGID_2_)" d="M124.474,104.679c0.002,5.91-4.834,10.752-10.742,10.755
		c-5.92,0.002-10.759-4.837-10.758-10.755c0.002-5.933,4.879-10.802,10.857-10.744C119.673,93.991,124.467,98.779,124.474,104.679
		 M113.724,97.519c-3.976,0-7.159,3.178-7.166,7.155c-0.007,3.976,3.188,7.176,7.166,7.176c3.969,0.001,7.16-3.186,7.166-7.157
		C120.897,100.713,117.706,97.519,113.724,97.519"/>
	<rect x="95.817" y="93.948" clip-path="url(#SVGID_2_)" width="3.561" height="3.561"/>
</g>
</svg>
