<?xml version="1.0" encoding="utf-8"?>
<!-- Generator: Adobe Illustrator 17.0.0, SVG Export Plug-In . SVG Version: 6.00 Build 0)  -->
<!DOCTYPE svg PUBLIC "-//W3C//DTD SVG 1.1//EN" "http://www.w3.org/Graphics/SVG/1.1/DTD/svg11.dtd">
<svg version="1.1" id="Capa_1" xmlns="http://www.w3.org/2000/svg" xmlns:xlink="http://www.w3.org/1999/xlink" x="0px" y="0px"
	 width="175.714px" height="177.143px" viewBox="0 0 175.714 177.143" enable-background="new 0 0 175.714 177.143"
	 xml:space="preserve">
<path display="none" fill="#5A5A5D" d="M170.808,88.565c0,45.513-37.105,82.409-82.876,82.409c-45.77,0-82.875-36.896-82.875-82.409
	c0-45.512,37.105-82.408,82.875-82.408C133.703,6.157,170.808,43.053,170.808,88.565"/>
<path display="none" fill="#E90E8B" d="M27.066,102.778c3.898-4.848,7.377-9.245,10.97-13.546c0.393-0.471,1.443-0.539,2.19-0.546
	c4.77-0.041,9.548-0.173,14.307,0.058c2.398,0.117,3.81-0.818,5.267-2.537c7.615-8.985,15.232-17.971,23.048-26.781
	c11.94-13.457,27.416-19.763,44.967-21.654c1.722-0.187,3.457-0.252,5.187-0.356c0.348-0.02,0.701,0.042,1.57,0.103
	c-0.388,3.861-0.59,7.651-1.177,11.381c-2.101,13.34-6.863,25.628-16.286,35.483c-6.276,6.564-13.325,12.396-20.132,18.44
	c-3.943,3.5-8.059,6.808-12.166,10.118c-1.076,0.867-1.463,1.762-1.424,3.128c0.15,5.272,0.216,10.549,0.214,15.823
	c0,0.86-0.229,2.051-0.812,2.526c-4.24,3.465-8.598,6.787-13.332,10.474c-0.79-3.47-1.481-6.454-2.148-9.444
	c-0.393-1.761-0.729-3.535-1.128-5.295c-0.476-2.098-1.296-2.585-3.391-1.865c-1.567,0.539-3.026,1.464-4.622,1.824
	c-1.224,0.275-2.857,0.385-3.842-0.207c-5.02-3.023-9.115-7.108-12.164-12.112c-0.6-0.984-0.532-2.605-0.273-3.827
	c0.323-1.526,1.233-2.918,1.764-4.413c0.787-2.222,0.209-3.154-2.072-3.644C37.002,104.926,32.424,103.934,27.066,102.778
	 M109.758,70.934c-0.004-4.845-4.021-8.86-8.813-8.811c-4.774,0.05-8.741,4.124-8.716,8.954c0.023,4.672,4.078,8.711,8.736,8.701
	C105.818,79.767,109.762,75.8,109.758,70.934"/>
<path fill="#5A5A5D" d="M169.477,88.41c0,45.348-36.971,82.111-82.576,82.111c-45.605,0-82.576-36.763-82.576-82.111
	c0-45.349,36.971-82.111,82.576-82.111C132.506,6.299,169.477,43.061,169.477,88.41"/>
<path fill="#4F72B8" d="M125.648,42.551c3.607,1.325,4.64,3.182,3.963,7.069c-0.533,3.062-1.713,5.892-3.077,8.657
	c-3.348,6.787-7.582,13.04-11.699,19.364c-2.673,4.107-5.219,8.298-7.97,12.352c-2.767,4.078-3.241,8.498-2.621,13.231
	c0.66,5.033,1.226,10.081,1.69,15.136c0.172,1.872,0.064,3.796-0.14,5.671c-0.309,2.844-1.229,4.298-4.005,6.745
	c-0.247-0.399-0.443-0.894-0.786-1.24c-4.007-4.041-8.041-8.056-12.056-12.089c-0.722-0.727-1.621-1.161-2.505-0.693
	c-0.641,0.34-1.219,1.088-1.478,1.784c-0.327,0.878,0.305,1.611,0.939,2.243c3.929,3.916,7.846,7.844,11.777,11.759
	c0.379,0.377,0.825,0.687,1.488,1.233c-1.007,0.899-1.818,1.643-2.65,2.361c-0.693,0.599-1.309,0.267-1.93-0.183
	c-3.418-2.478-6.843-4.946-10.268-7.415c-4.12-2.972-8.241-5.943-12.364-8.911c-0.228-0.164-0.475-0.299-0.94-0.591
	c-0.273,0.365-0.515,0.776-0.839,1.106c-1.483,1.516-1.491,1.508-3.161,0.196c-2.903,1.899-5.623,1.254-8.19-0.737
	c-0.479-0.371-0.83-0.37-1.336-0.108c-2,1.034-4.022,2.024-6.031,3.042c-0.57,0.288-1.25,0.593-1.619-0.055
	c-0.239-0.418-0.199-1.174,0.016-1.642c0.908-1.981,1.904-3.923,2.923-5.851c0.331-0.625,0.309-1.053-0.146-1.619
	c-1.325-1.654-2.064-3.54-1.651-5.686c0.158-0.82,0.608-1.584,0.966-2.476c-2.407-2.038,0.524-2.735,1.209-4.19
	c-1.555-2.164-3.152-4.393-4.756-6.618c-3.913-5.427-7.83-10.852-11.744-16.278c-1.135-1.575-1.124-1.602,0.197-2.956
	c0.547-0.562,1.051-1.166,1.643-1.825c2.788,2.801,5.435,5.462,8.085,8.121c1.667,1.674,3.332,3.35,5.01,5.013
	c1.194,1.184,2.514,1.287,3.495,0.303c0.966-0.972,0.853-2.326-0.318-3.499c-4.046-4.054-8.097-8.102-12.152-12.145
	c-0.253-0.251-0.568-0.439-0.866-0.667c1.914-2.718,4.462-3.825,7.493-4.055c4.171-0.316,8.282,0.263,12.406,0.743
	c3.834,0.445,7.676,0.833,11.522,1.168c2.413,0.211,4.721-0.307,6.791-1.58c4.658-2.867,9.32-5.73,13.911-8.703
	c6.394-4.141,12.68-8.454,19.497-11.895c3.005-1.517,6.067-2.898,9.435-3.425c0.095-0.014,0.177-0.108,0.264-0.165H125.648z
	 M58.429,114.865c0.216-0.157,0.547-0.363,0.839-0.614c3.229-2.772,6.451-5.551,9.677-8.328c3.876-3.336,7.757-6.666,11.629-10.008
	c0.905-0.781,0.911-1.047,0.078-1.902c-0.749-0.768-1.517-1.518-2.279-2.273c-0.948-0.939-1.14-0.926-2.032,0.109
	c-6.065,7.047-12.132,14.094-18.196,21.143c-0.209,0.242-0.444,0.483-0.574,0.767C57.308,114.336,57.698,114.908,58.429,114.865
	 M121.005,59.725c-0.624-2.068-1.222-4.121-1.882-6.154c-0.075-0.233-0.47-0.417-0.754-0.519c-5.5-1.964-5.501-1.961-10.708,0.609
	c-0.031,0.015-0.077,0.018-0.097,0.043c-0.311,0.385-0.835,0.76-0.86,1.166c-0.02,0.322,0.507,0.821,0.901,1.001
	c1.816,0.833,3.683,1.552,5.501,2.38c0.403,0.184,0.81,0.586,0.994,0.989c0.801,1.751,1.485,3.555,2.292,5.304
	c0.212,0.46,0.764,1.139,1.07,1.094c0.466-0.067,0.99-0.601,1.251-1.07c0.711-1.276,1.302-2.619,1.931-3.94
	C120.78,60.343,120.88,60.04,121.005,59.725"/>
</svg>
