<svg xmlns="http://www.w3.org/2000/svg" viewBox="0 0 132.6 27.38"><defs><style>.cls-1{font-size:17.1px;font-family:AkkuratProBold, Akkurat Pro;font-weight:700;}.cls-1,.cls-2{fill:#221f1f;}</style></defs><title>Showroom</title><g id="Capa_2" data-name="Capa 2"><g id="Capa_1-2" data-name="Capa 1"><text class="cls-1" transform="translate(47.09 18.49)">Showroom</text><path class="cls-2" d="M13.69,0H26c1,0,1.37.42,1.37,1.38V21.22a1.16,1.16,0,0,1-.9,1.27,1.85,1.85,0,0,1-.39,0H1.29A1.16,1.16,0,0,1,0,21.22q0-10,0-19.92A1.16,1.16,0,0,1,1.31,0H13.69M2.3,20.21H25.07V2.29H2.3Z"/><path class="cls-2" d="M13.69,27.38H1.29A1.15,1.15,0,0,1,0,26.52a1.12,1.12,0,0,1,.79-1.37,2,2,0,0,1,.5-.05H26a1.19,1.19,0,0,1,1.25.74,1.14,1.14,0,0,1-1,1.53H13.69"/><path class="cls-2" d="M16.43,9.58c.47.61.94,1.22,1.43,1.82a.39.39,0,0,0,.31.09,3.25,3.25,0,0,1,3.7,2.66,3.27,3.27,0,0,1-4.69,3.48,3.13,3.13,0,0,1-1.79-2.88,2.89,2.89,0,0,1,.5-1.74.31.31,0,0,0,0-.43c-.39-.48-.76-1-1.13-1.45a.36.36,0,0,0-.37-.15c-.46,0-.92,0-1.38,0a.41.41,0,0,0-.28.08c-.46.56-.9,1.14-1.32,1.68a10,10,0,0,1,.48,1.18,3.25,3.25,0,0,1-2.47,4,3.27,3.27,0,1,1-.22-6.43.36.36,0,0,0,.4-.16q.6-.81,1.23-1.59a.28.28,0,0,0,0-.37,3.12,3.12,0,0,1,.26-3.59,3.08,3.08,0,0,1,3.32-1.19,3.12,3.12,0,0,1,2.48,2.58,3.07,3.07,0,0,1-.33,2.14l-.14.26m2.28,4.16a1,1,0,1,0-.08,2,1,1,0,1,0,.08-2m-10,2a1,1,0,1,0-1-1,1,1,0,0,0,1,1m5-6.94a1,1,0,1,0-1-1,1,1,0,0,0,1,1"/></g></g></svg>