<?xml version="1.0" encoding="utf-8"?>
<!-- Generator: Adobe Illustrator 17.0.0, SVG Export Plug-In . SVG Version: 6.00 Build 0)  -->
<!DOCTYPE svg PUBLIC "-//W3C//DTD SVG 1.1//EN" "http://www.w3.org/Graphics/SVG/1.1/DTD/svg11.dtd">
<svg version="1.1" id="Capa_1" xmlns="http://www.w3.org/2000/svg" xmlns:xlink="http://www.w3.org/1999/xlink" x="0px" y="0px"
	 width="175.714px" height="177.143px" viewBox="0 0 175.714 177.143" enable-background="new 0 0 175.714 177.143"
	 xml:space="preserve">
<path fill="#5A5A5D" d="M170.808,88.565c0,45.513-37.105,82.409-82.876,82.409c-45.77,0-82.875-36.896-82.875-82.409
	c0-45.512,37.105-82.408,82.875-82.408C133.703,6.157,170.808,43.053,170.808,88.565"/>
<path fill="#E90E8B" d="M27.066,102.778c3.898-4.848,7.377-9.245,10.97-13.546c0.393-0.471,1.443-0.539,2.19-0.546
	c4.77-0.041,9.548-0.173,14.307,0.058c2.398,0.117,3.81-0.818,5.267-2.537c7.615-8.985,15.232-17.971,23.048-26.781
	c11.94-13.457,27.416-19.763,44.967-21.654c1.722-0.187,3.457-0.252,5.187-0.356c0.348-0.02,0.701,0.042,1.57,0.103
	c-0.388,3.861-0.59,7.651-1.177,11.381c-2.101,13.34-6.863,25.628-16.286,35.483c-6.276,6.564-13.325,12.396-20.132,18.44
	c-3.943,3.5-8.059,6.808-12.166,10.118c-1.076,0.867-1.463,1.762-1.424,3.128c0.15,5.272,0.216,10.549,0.214,15.823
	c0,0.86-0.229,2.051-0.812,2.526c-4.24,3.465-8.598,6.787-13.332,10.474c-0.79-3.47-1.481-6.454-2.148-9.444
	c-0.393-1.761-0.729-3.535-1.128-5.295c-0.476-2.098-1.296-2.585-3.391-1.865c-1.567,0.539-3.026,1.464-4.622,1.824
	c-1.224,0.275-2.857,0.385-3.842-0.207c-5.02-3.023-9.115-7.108-12.164-12.112c-0.6-0.984-0.532-2.605-0.273-3.827
	c0.323-1.526,1.233-2.918,1.764-4.413c0.787-2.222,0.209-3.154-2.072-3.644C37.002,104.926,32.424,103.934,27.066,102.778
	 M109.758,70.934c-0.004-4.845-4.021-8.86-8.813-8.811c-4.774,0.05-8.741,4.124-8.716,8.954c0.023,4.672,4.078,8.711,8.736,8.701
	C105.818,79.767,109.762,75.8,109.758,70.934"/>
</svg>
