<svg xmlns="http://www.w3.org/2000/svg" viewBox="0 0 164.27 26.62"><defs><style>.cls-1{fill:none;stroke:#221f1f;stroke-miterlimit:10;}.cls-2{fill:#221f1f;}</style></defs><title>SUBIR PRODUCTO</title><g id="Capa_2" data-name="Capa 2"><g id="Capa_1-2" data-name="Capa 1"><rect class="cls-1" x="0.5" y="0.5" width="163.27" height="25.62" rx="12" ry="12"/><path class="cls-2" d="M31.43,17.23a4.39,4.39,0,0,1-3.14,1.06,4.36,4.36,0,0,1-3-1,3.17,3.17,0,0,1-1-2.31h1.85a1.75,1.75,0,0,0,.52,1.22,2.37,2.37,0,0,0,1.67.53A2.41,2.41,0,0,0,30,16.18a1.24,1.24,0,0,0,.39-1c0-.73-.56-1.06-1.18-1.18s-1.54-.15-2.2-.27A2.74,2.74,0,0,1,25.4,9.05,4.24,4.24,0,0,1,28.32,8a4.1,4.1,0,0,1,2.77,1,3,3,0,0,1,1,2.11H30.25a1.61,1.61,0,0,0-.43-1,2.29,2.29,0,0,0-1.51-.53,2.24,2.24,0,0,0-1.61.55,1.14,1.14,0,0,0-.34.84,1.06,1.06,0,0,0,1,1.08c.63.1,1.51.17,2.16.25a2.89,2.89,0,0,1,2.73,2.87A2.8,2.8,0,0,1,31.43,17.23Z"/><path class="cls-2" d="M37.48,18.3c-2.56,0-3.89-1.62-3.89-4V8.18H35.4v6.09c0,1.42.64,2.38,2.09,2.38s2.09-1,2.09-2.38V8.18h1.81V14.3C41.38,16.67,40,18.3,37.48,18.3Z"/><path class="cls-2" d="M50,17.46a4.16,4.16,0,0,1-2.65.67H43.42V8.18h3.95a4.2,4.2,0,0,1,2.3.55,2.58,2.58,0,0,1,1.15,2.16A2.26,2.26,0,0,1,49.6,13,2.43,2.43,0,0,1,51,15.23,2.67,2.67,0,0,1,50,17.46ZM47.44,9.74H45.21v2.49h2.27c.81,0,1.5-.29,1.5-1.23S48.25,9.74,47.44,9.74Zm.06,4H45.21V16.5h2.23c.84,0,1.75-.31,1.75-1.32S48.45,13.74,47.5,13.74Z"/><path class="cls-2" d="M52.71,18.11V8.18h1.84v9.93Z"/><path class="cls-2" d="M62.55,18.11l-1.65-3.75h-2.2v3.75H56.87V8.18h4.19c2.37,0,3.45,1.49,3.45,3.08a2.86,2.86,0,0,1-1.82,2.79l1.82,4.06ZM61.06,9.77H58.68v3h2.41c1,0,1.61-.53,1.61-1.47A1.52,1.52,0,0,0,61.06,9.77Z"/><path class="cls-2" d="M72.92,14.56h-2.1v3.56H69V8.18h3.89c2.28,0,3.5,1.28,3.5,3.18S75.2,14.56,72.92,14.56Zm-.07-4.79h-2V13h2c1.21,0,1.75-.64,1.75-1.6A1.52,1.52,0,0,0,72.85,9.77Z"/><path class="cls-2" d="M83.43,18.11l-1.65-3.75h-2.2v3.75H77.76V8.18h4.19c2.37,0,3.45,1.49,3.45,3.08a2.86,2.86,0,0,1-1.82,2.79l1.82,4.06ZM81.95,9.77H79.57v3H82c1,0,1.61-.53,1.61-1.47A1.52,1.52,0,0,0,81.95,9.77Z"/><path class="cls-2" d="M93.39,17.18a4.2,4.2,0,0,1-5.71,0c-1.08-1.08-1.26-2.4-1.26-4s.18-3,1.26-4a4.2,4.2,0,0,1,5.71,0c1.08,1.08,1.26,2.41,1.26,4S94.47,16.1,93.39,17.18ZM92.1,10.3a2.2,2.2,0,0,0-3.14,0,4.18,4.18,0,0,0-.71,2.86A4.14,4.14,0,0,0,89,16a2.2,2.2,0,0,0,3.14,0,4.14,4.14,0,0,0,.71-2.84A4.18,4.18,0,0,0,92.1,10.3Z"/><path class="cls-2" d="M103,17a3.8,3.8,0,0,1-2.79,1.06H96.39V8.18h3.87A3.8,3.8,0,0,1,103,9.25a5.34,5.34,0,0,1,1.16,3.89A5.37,5.37,0,0,1,103,17Zm-1.39-6.68a2,2,0,0,0-1.4-.56H98.2v6.68h2.06a2,2,0,0,0,1.4-.56,3.92,3.92,0,0,0,.71-2.79A3.88,3.88,0,0,0,101.66,10.37Z"/><path class="cls-2" d="M109.58,18.3c-2.56,0-3.89-1.62-3.89-4V8.18h1.81v6.09c0,1.42.64,2.38,2.09,2.38s2.09-1,2.09-2.38V8.18h1.81V14.3C113.48,16.67,112.15,18.3,109.58,18.3Z"/><path class="cls-2" d="M121.81,17.12A4,4,0,0,1,119,18.3a3.89,3.89,0,0,1-2.82-1.11c-1.08-1.08-1.23-2.41-1.23-4s.15-3,1.23-4A3.9,3.9,0,0,1,119,8a4,4,0,0,1,2.84,1.15,3.62,3.62,0,0,1,1,2.16h-1.85a1.84,1.84,0,0,0-.45-1.05,1.88,1.88,0,0,0-1.5-.62,2.1,2.1,0,0,0-1.53.66,4.17,4.17,0,0,0-.69,2.86,4.17,4.17,0,0,0,.69,2.86,2.1,2.1,0,0,0,1.53.66,1.89,1.89,0,0,0,1.5-.63,2,2,0,0,0,.45-1.09h1.85A3.66,3.66,0,0,1,121.81,17.12Z"/><path class="cls-2" d="M128,9.86v8.25h-1.81V9.86h-2.94V8.18h7.69V9.86Z"/><path class="cls-2" d="M138.57,17.18a4.2,4.2,0,0,1-5.71,0c-1.08-1.08-1.26-2.4-1.26-4s.18-3,1.26-4a4.2,4.2,0,0,1,5.71,0c1.08,1.08,1.26,2.41,1.26,4S139.64,16.1,138.57,17.18Zm-1.29-6.88a2.2,2.2,0,0,0-3.14,0,4.19,4.19,0,0,0-.71,2.86,4.15,4.15,0,0,0,.71,2.84,2.2,2.2,0,0,0,3.14,0,4.15,4.15,0,0,0,.71-2.84A4.19,4.19,0,0,0,137.28,10.3Z"/></g></g></svg>