<svg xmlns="http://www.w3.org/2000/svg" viewBox="0 0 163.27 25.62"><defs><style>.cls-1{fill:#d1d2d3;}.cls-2{fill:#221f1f;}</style></defs><title>SUBIR PRODUCTO OVER_1</title><g id="Capa_2" data-name="Capa 2"><g id="Capa_1-2" data-name="Capa 1"><rect class="cls-1" width="163.27" height="25.62" rx="12" ry="12"/><path class="cls-2" d="M30.92,16.73a4.38,4.38,0,0,1-3.14,1.06,4.36,4.36,0,0,1-3-1,3.17,3.17,0,0,1-1-2.31h1.85a1.74,1.74,0,0,0,.52,1.22,2.37,2.37,0,0,0,1.67.53,2.41,2.41,0,0,0,1.72-.53,1.24,1.24,0,0,0,.39-1c0-.73-.56-1.06-1.18-1.18s-1.54-.15-2.2-.27A2.74,2.74,0,0,1,24.9,8.55,4.24,4.24,0,0,1,27.82,7.5a4.1,4.1,0,0,1,2.77,1,3,3,0,0,1,1,2.11H29.75a1.61,1.61,0,0,0-.43-1,2.29,2.29,0,0,0-1.51-.53,2.24,2.24,0,0,0-1.61.55,1.15,1.15,0,0,0-.34.84,1.06,1.06,0,0,0,1,1.08c.63.1,1.51.17,2.16.25a2.89,2.89,0,0,1,2.73,2.87A2.8,2.8,0,0,1,30.92,16.73Z"/><path class="cls-2" d="M37,17.8c-2.56,0-3.89-1.62-3.89-4V7.68H34.9v6.09c0,1.42.64,2.38,2.09,2.38s2.09-1,2.09-2.38V7.68h1.81V13.8C40.88,16.17,39.55,17.8,37,17.8Z"/><path class="cls-2" d="M49.52,17a4.16,4.16,0,0,1-2.65.67h-4V7.68h4a4.2,4.2,0,0,1,2.3.55,2.58,2.58,0,0,1,1.15,2.16,2.26,2.26,0,0,1-1.22,2.1,2.43,2.43,0,0,1,1.43,2.24A2.67,2.67,0,0,1,49.52,17ZM46.94,9.24H44.71v2.49H47c.81,0,1.5-.29,1.5-1.23S47.75,9.24,46.94,9.24Zm.06,4H44.71V16h2.23c.84,0,1.75-.31,1.75-1.32S47.95,13.24,47,13.24Z"/><path class="cls-2" d="M52.21,17.61V7.68H54v9.93Z"/><path class="cls-2" d="M62,17.61l-1.65-3.75h-2.2v3.75H56.37V7.68h4.19c2.37,0,3.45,1.49,3.45,3.08a2.86,2.86,0,0,1-1.82,2.79L64,17.61ZM60.56,9.27H58.18v3h2.41c1,0,1.61-.53,1.61-1.47A1.52,1.52,0,0,0,60.56,9.27Z"/><path class="cls-2" d="M72.42,14.06h-2.1v3.56H68.52V7.68h3.89c2.28,0,3.5,1.28,3.5,3.18S74.7,14.06,72.42,14.06Zm-.07-4.79h-2v3.21h2c1.21,0,1.75-.64,1.75-1.6A1.52,1.52,0,0,0,72.35,9.27Z"/><path class="cls-2" d="M82.93,17.61l-1.65-3.75h-2.2v3.75H77.26V7.68h4.19c2.37,0,3.45,1.49,3.45,3.08a2.86,2.86,0,0,1-1.82,2.79l1.82,4.06ZM81.45,9.27H79.07v3h2.41c1,0,1.61-.53,1.61-1.47A1.52,1.52,0,0,0,81.45,9.27Z"/><path class="cls-2" d="M92.89,16.68a4.2,4.2,0,0,1-5.71,0c-1.08-1.08-1.26-2.4-1.26-4s.18-3,1.26-4a4.2,4.2,0,0,1,5.71,0c1.08,1.08,1.26,2.41,1.26,4S94,15.6,92.89,16.68ZM91.6,9.8a2.2,2.2,0,0,0-3.14,0,4.19,4.19,0,0,0-.71,2.86,4.15,4.15,0,0,0,.71,2.84,2.2,2.2,0,0,0,3.14,0,4.15,4.15,0,0,0,.71-2.84A4.19,4.19,0,0,0,91.6,9.8Z"/><path class="cls-2" d="M102.55,16.55a3.8,3.8,0,0,1-2.79,1.06H95.89V7.68h3.87a3.8,3.8,0,0,1,2.79,1.06,5.34,5.34,0,0,1,1.16,3.89A5.37,5.37,0,0,1,102.55,16.55Zm-1.39-6.68a2,2,0,0,0-1.4-.56H97.7V16h2.06a2,2,0,0,0,1.4-.56,3.92,3.92,0,0,0,.71-2.79A3.88,3.88,0,0,0,101.16,9.87Z"/><path class="cls-2" d="M109.08,17.8c-2.56,0-3.89-1.62-3.89-4V7.68H107v6.09c0,1.42.64,2.38,2.09,2.38s2.09-1,2.09-2.38V7.68H113V13.8C113,16.17,111.65,17.8,109.08,17.8Z"/><path class="cls-2" d="M121.31,16.62a4,4,0,0,1-2.84,1.18,3.89,3.89,0,0,1-2.82-1.11c-1.08-1.08-1.23-2.41-1.23-4s.15-3,1.23-4a3.9,3.9,0,0,1,2.82-1.12,4,4,0,0,1,2.84,1.15,3.62,3.62,0,0,1,1,2.16h-1.85A1.84,1.84,0,0,0,120,9.76a1.88,1.88,0,0,0-1.5-.62,2.1,2.1,0,0,0-1.53.66,4.17,4.17,0,0,0-.69,2.86,4.17,4.17,0,0,0,.69,2.86,2.1,2.1,0,0,0,1.53.66,1.89,1.89,0,0,0,1.5-.63,2,2,0,0,0,.45-1.09h1.85A3.66,3.66,0,0,1,121.31,16.62Z"/><path class="cls-2" d="M127.48,9.36v8.25h-1.81V9.36h-2.94V7.68h7.69V9.36Z"/><path class="cls-2" d="M138.07,16.68a4.2,4.2,0,0,1-5.71,0c-1.08-1.08-1.26-2.4-1.26-4s.18-3,1.26-4a4.2,4.2,0,0,1,5.71,0c1.08,1.08,1.26,2.41,1.26,4S139.14,15.6,138.07,16.68ZM136.78,9.8a2.2,2.2,0,0,0-3.14,0,4.19,4.19,0,0,0-.71,2.86,4.15,4.15,0,0,0,.71,2.84,2.2,2.2,0,0,0,3.14,0,4.15,4.15,0,0,0,.71-2.84A4.19,4.19,0,0,0,136.78,9.8Z"/></g></g></svg>