<?xml version="1.0" encoding="utf-8"?>
<!-- Generator: Adobe Illustrator 17.0.0, SVG Export Plug-In . SVG Version: 6.00 Build 0)  -->
<!DOCTYPE svg PUBLIC "-//W3C//DTD SVG 1.1//EN" "http://www.w3.org/Graphics/SVG/1.1/DTD/svg11.dtd">
<svg version="1.1" id="Capa_1" xmlns="http://www.w3.org/2000/svg" xmlns:xlink="http://www.w3.org/1999/xlink" x="0px" y="0px"
	 width="400px" height="417.857px" viewBox="0 0 400 417.857" enable-background="new 0 0 400 417.857" xml:space="preserve">
<g>
	<defs>
		<path id="SVGID_1_" d="M88.817,371.881L34.282,48.573c-1.487-8.818,7.129-15.939,15.509-12.818L357.052,150.18
			c8.381,3.121,10.24,14.143,3.347,19.84L107.673,378.904c-2.219,1.835-4.812,2.674-7.355,2.674
			C94.965,381.579,89.826,377.86,88.817,371.881 M4.494,43.446l57.865,343.05c4.286,25.407,34.466,36.646,54.324,20.232
			l268.159-221.639c19.858-16.413,14.501-48.171-9.643-57.162L49.176,6.515c-3.947-1.469-7.915-2.15-11.767-2.151
			C17.691,4.362,0.908,22.193,4.494,43.446"/>
	</defs>
	<clipPath id="SVGID_2_">
		<use xlink:href="#SVGID_1_"  overflow="visible"/>
	</clipPath>
	
		<linearGradient id="SVGID_3_" gradientUnits="userSpaceOnUse" x1="-477.3677" y1="1986.337" x2="-476.3677" y2="1986.337" gradientTransform="matrix(69.0159 409.1537 409.1537 -69.0159 -779607.3125 332388.25)">
		<stop  offset="0" style="stop-color:#04B4A5"/>
		<stop  offset="0.147" style="stop-color:#37B79E"/>
		<stop  offset="0.4071" style="stop-color:#6ABF8D"/>
		<stop  offset="0.7475" style="stop-color:#A2CD6A"/>
		<stop  offset="1" style="stop-color:#CBDC41"/>
	</linearGradient>
	<polygon clip-path="url(#SVGID_2_)" fill="url(#SVGID_3_)" points="393.529,-61.866 473.386,411.556 12.08,489.369 -67.777,15.947 
			"/>
</g>
</svg>
