<svg xmlns="http://www.w3.org/2000/svg" viewBox="0 0 164.27 26.62"><defs><style>.cls-1{fill:none;stroke:#221f1f;stroke-miterlimit:10;}.cls-2{fill:#221f1f;}</style></defs><title>TUTORIALES</title><g id="Capa_2" data-name="Capa 2"><g id="Capa_1-2" data-name="Capa 1"><rect class="cls-1" x="0.5" y="0.5" width="163.27" height="25.62" rx="12" ry="12"/><path class="cls-2" d="M45.8,9.86v8.25H44V9.86H41.05V8.18h7.69V9.86Z"/><path class="cls-2" d="M53.6,18.29c-2.56,0-3.89-1.62-3.89-4V8.18h1.81v6.09c0,1.42.64,2.38,2.09,2.38s2.09-1,2.09-2.38V8.18h1.81V14.3C57.49,16.67,56.16,18.29,53.6,18.29Z"/><path class="cls-2" d="M63.2,9.86v8.25H61.4V9.86H58.45V8.18h7.69V9.86Z"/><path class="cls-2" d="M73.79,17.17a4.2,4.2,0,0,1-5.71,0c-1.08-1.08-1.26-2.4-1.26-4s.18-3,1.26-4a4.2,4.2,0,0,1,5.71,0c1.08,1.08,1.26,2.41,1.26,4S74.87,16.1,73.79,17.17ZM72.5,10.3a2.2,2.2,0,0,0-3.14,0,4.19,4.19,0,0,0-.71,2.86A4.15,4.15,0,0,0,69.36,16a2.2,2.2,0,0,0,3.14,0,4.15,4.15,0,0,0,.71-2.84A4.19,4.19,0,0,0,72.5,10.3Z"/><path class="cls-2" d="M82.47,18.11l-1.65-3.75h-2.2v3.75H76.79V8.18H81c2.37,0,3.45,1.49,3.45,3.08a2.86,2.86,0,0,1-1.82,2.79l1.82,4.06ZM81,9.76H78.6v3H81c1,0,1.61-.53,1.61-1.47A1.52,1.52,0,0,0,81,9.76Z"/><path class="cls-2" d="M86,18.11V8.18h1.83v9.93Z"/><path class="cls-2" d="M96.08,18.11l-.64-1.91h-4l-.64,1.91H89L92.5,8.18h2L98,18.11ZM93.46,10.4,92,14.58h2.83Z"/><path class="cls-2" d="M99.12,18.11V8.18h1.81V16.4h4.61v1.71Z"/><path class="cls-2" d="M106.82,18.11V8.18h7.07V9.82h-5.27v2.31h4.64v1.63h-4.64v2.72h5.27v1.64Z"/><path class="cls-2" d="M122,17.23a5,5,0,0,1-6.11,0,3.17,3.17,0,0,1-1-2.31h1.85a1.75,1.75,0,0,0,.52,1.22,2.37,2.37,0,0,0,1.67.53,2.41,2.41,0,0,0,1.72-.53,1.23,1.23,0,0,0,.39-1c0-.73-.56-1.06-1.18-1.18s-1.54-.15-2.2-.27A2.74,2.74,0,0,1,116,9.05,4.25,4.25,0,0,1,118.91,8a4.1,4.1,0,0,1,2.77,1,3,3,0,0,1,1,2.11h-1.85a1.61,1.61,0,0,0-.43-1,2.29,2.29,0,0,0-1.51-.53,2.24,2.24,0,0,0-1.61.55,1.15,1.15,0,0,0-.34.84A1.06,1.06,0,0,0,118,12c.63.1,1.51.17,2.16.25a2.89,2.89,0,0,1,2.73,2.87A2.8,2.8,0,0,1,122,17.23Z"/></g></g></svg>