<svg xmlns="http://www.w3.org/2000/svg" viewBox="0 0 163.27 25.62"><defs><style>.cls-1{fill:#f1f1f1;}.cls-2{fill:#221f1f;}</style></defs><title>TUTORIALES OVER</title><g id="Capa_2" data-name="Capa 2"><g id="Capa_1-2" data-name="Capa 1"><rect class="cls-1" width="163.27" height="25.62" rx="12" ry="12"/><path class="cls-2" d="M45.3,9.36v8.25H43.49V9.36H40.55V7.68h7.69V9.36Z"/><path class="cls-2" d="M53.1,17.79c-2.56,0-3.89-1.62-3.89-4V7.68H51v6.09c0,1.42.64,2.38,2.09,2.38s2.09-1,2.09-2.38V7.68H57V13.8C57,16.17,55.66,17.79,53.1,17.79Z"/><path class="cls-2" d="M62.7,9.36v8.25H60.9V9.36H58V7.68h7.69V9.36Z"/><path class="cls-2" d="M73.29,16.67a4.2,4.2,0,0,1-5.71,0c-1.08-1.08-1.26-2.4-1.26-4s.18-3,1.26-4a4.2,4.2,0,0,1,5.71,0c1.08,1.08,1.26,2.41,1.26,4S74.37,15.6,73.29,16.67ZM72,9.8a2.2,2.2,0,0,0-3.14,0,4.19,4.19,0,0,0-.71,2.86,4.15,4.15,0,0,0,.71,2.84,2.2,2.2,0,0,0,3.14,0,4.15,4.15,0,0,0,.71-2.84A4.19,4.19,0,0,0,72,9.8Z"/><path class="cls-2" d="M82,17.61l-1.65-3.75h-2.2v3.75H76.29V7.68h4.19c2.37,0,3.45,1.49,3.45,3.08a2.86,2.86,0,0,1-1.82,2.79l1.82,4.06ZM80.48,9.26H78.1v3h2.41c1,0,1.61-.53,1.61-1.47A1.52,1.52,0,0,0,80.48,9.26Z"/><path class="cls-2" d="M85.52,17.61V7.68h1.83v9.93Z"/><path class="cls-2" d="M95.58,17.61l-.64-1.91H91l-.64,1.91H88.52L92,7.68h2l3.49,9.93ZM93,9.9l-1.41,4.19h2.83Z"/><path class="cls-2" d="M98.62,17.61V7.68h1.81V15.9H105v1.71Z"/><path class="cls-2" d="M106.32,17.61V7.68h7.07V9.32h-5.27v2.31h4.64v1.63h-4.64V16h5.27v1.64Z"/><path class="cls-2" d="M121.52,16.73a5,5,0,0,1-6.11,0,3.17,3.17,0,0,1-1-2.31h1.85a1.75,1.75,0,0,0,.52,1.22,2.36,2.36,0,0,0,1.67.53,2.4,2.4,0,0,0,1.72-.53,1.23,1.23,0,0,0,.39-1c0-.73-.56-1.06-1.18-1.18s-1.54-.15-2.2-.27a2.74,2.74,0,0,1-1.65-4.73,4.24,4.24,0,0,1,2.91-1.05,4.1,4.1,0,0,1,2.77,1,3,3,0,0,1,1,2.11h-1.85a1.61,1.61,0,0,0-.43-1,2.29,2.29,0,0,0-1.51-.53,2.24,2.24,0,0,0-1.61.55,1.15,1.15,0,0,0-.34.84,1.06,1.06,0,0,0,1,1.08c.63.1,1.51.17,2.16.25a2.89,2.89,0,0,1,2.73,2.87A2.8,2.8,0,0,1,121.52,16.73Z"/></g></g></svg>