<?xml version="1.0" encoding="utf-8"?>
<!-- Generator: Adobe Illustrator 17.0.0, SVG Export Plug-In . SVG Version: 6.00 Build 0)  -->
<!DOCTYPE svg PUBLIC "-//W3C//DTD SVG 1.1//EN" "http://www.w3.org/Graphics/SVG/1.1/DTD/svg11.dtd">
<svg version="1.1" id="Capa_1" xmlns="http://www.w3.org/2000/svg" xmlns:xlink="http://www.w3.org/1999/xlink" x="0px" y="0px"
	 width="36.392px" height="40px" viewBox="0 0 36.392 40" enable-background="new 0 0 36.392 40" xml:space="preserve">
<ellipse display="none" fill="none" stroke="#5A5A5D" stroke-miterlimit="10" cx="17.825" cy="19.243" rx="15.825" ry="15.831"/>
<path display="none" fill="none" stroke="#5A5A5D" stroke-miterlimit="10" d="M19.098,14.676h2.185v-2.704h-2.185
	c-1.805,0-3.274,1.59-3.274,3.547v1.361h-2.185v2.71h2.185v6.567h2.729v-6.56h2.73v-2.711h-2.73v-1.393
	C18.547,15.03,18.838,14.676,19.098,14.676z"/>
<ellipse fill="none" stroke="#5A5A5D" stroke-miterlimit="10" cx="18.812" cy="19.243" rx="15.699" ry="15.705"/>
<path fill="#5A5A5D" d="M13.824,21.787h0.842v4.178h0.81v-4.178h0.842v-0.71h-2.494V21.787z M17.97,25.098
	c-0.069,0.075-0.144,0.144-0.226,0.194c-0.082,0.051-0.151,0.076-0.201,0.076c-0.069,0-0.119-0.019-0.151-0.057
	c-0.031-0.038-0.044-0.1-0.044-0.182v-2.764h-0.722v3.015c0,0.214,0.044,0.377,0.125,0.484c0.082,0.107,0.208,0.163,0.377,0.163
	c0.139,0,0.277-0.038,0.415-0.113c0.144-0.075,0.283-0.188,0.415-0.333v0.396h0.728v-3.606h-0.722v2.727H17.97z M20.602,22.314
	c-0.113,0-0.219,0.026-0.333,0.088c-0.106,0.057-0.213,0.139-0.307,0.252v-1.571h-0.729v4.882h0.729v-0.277
	c0.094,0.113,0.201,0.189,0.307,0.245c0.107,0.05,0.233,0.076,0.377,0.076c0.214,0,0.377-0.07,0.49-0.201
	c0.113-0.139,0.17-0.333,0.17-0.591V23.22c0-0.296-0.063-0.522-0.182-0.673C21.005,22.39,20.829,22.314,20.602,22.314
	 M20.559,25.116c0,0.113-0.019,0.195-0.063,0.245c-0.044,0.051-0.107,0.075-0.195,0.075c-0.063,0-0.119-0.012-0.176-0.037
	c-0.056-0.025-0.113-0.069-0.17-0.126v-2.242c0.051-0.051,0.101-0.089,0.151-0.107c0.05-0.026,0.101-0.037,0.151-0.037
	c0.094,0,0.169,0.031,0.226,0.093c0.05,0.063,0.076,0.158,0.076,0.277V25.116z M22.776,22.27c-0.32,0-0.584,0.101-0.791,0.296
	c-0.202,0.195-0.308,0.453-0.308,0.766v1.621c0,0.346,0.094,0.622,0.276,0.816c0.182,0.202,0.44,0.296,0.76,0.296
	c0.358,0,0.629-0.094,0.811-0.276c0.182-0.188,0.27-0.465,0.27-0.836V24.77h-0.742v0.165c0,0.212-0.025,0.344-0.069,0.408
	c-0.05,0.062-0.131,0.093-0.251,0.093c-0.113,0-0.195-0.037-0.245-0.106c-0.05-0.075-0.069-0.207-0.069-0.395v-0.679h1.376v-0.93
	c0-0.339-0.088-0.603-0.264-0.785C23.36,22.358,23.103,22.27,22.776,22.27 M23.059,23.685h-0.635v-0.366
	c0-0.15,0.025-0.257,0.076-0.32c0.05-0.068,0.132-0.101,0.245-0.101c0.107,0,0.188,0.033,0.238,0.101
	c0.051,0.063,0.076,0.17,0.076,0.32V23.685z M18.881,15.411c-0.101,0-0.176,0.025-0.239,0.081c-0.062,0.051-0.094,0.126-0.094,0.207
	v2.161c0,0.108,0.032,0.196,0.088,0.252c0.057,0.063,0.138,0.088,0.245,0.088c0.107,0,0.195-0.031,0.264-0.095
	c0.063-0.062,0.094-0.144,0.094-0.251v-2.161c0-0.088-0.031-0.157-0.1-0.207C19.076,15.436,18.988,15.411,18.881,15.411
	 M25.653,12.427H11.977c-0.993,0-1.809,0.81-1.809,1.809v3.844c0,0.993,0.81,1.81,1.809,1.81h13.676c0.993,0,1.81-0.811,1.81-1.81
	v-3.844C27.457,13.237,26.646,12.427,25.653,12.427 M16.582,16.561v2.229h-0.911v-2.129l-1.087-3.248h0.917l0.591,2.148h0.056
	l0.566-2.148h0.93L16.582,16.561z M20.069,17.804c0,0.34-0.107,0.603-0.315,0.798c-0.213,0.195-0.502,0.289-0.867,0.289
	c-0.351,0-0.64-0.101-0.854-0.301c-0.214-0.201-0.32-0.465-0.32-0.805v-2.054c0-0.308,0.106-0.552,0.326-0.735
	c0.22-0.183,0.515-0.276,0.88-0.276c0.333,0,0.609,0.093,0.823,0.289c0.213,0.194,0.32,0.439,0.32,0.741v2.054H20.069z M23.04,18.79
	h-0.811v-0.439c-0.15,0.163-0.301,0.283-0.464,0.371c-0.164,0.081-0.321,0.125-0.472,0.125c-0.188,0-0.326-0.057-0.427-0.176
	c-0.094-0.119-0.144-0.295-0.144-0.534V14.82h0.81v3.04c0,0.095,0.019,0.164,0.05,0.201c0.032,0.044,0.088,0.064,0.164,0.064
	c0.056,0,0.138-0.025,0.226-0.082c0.088-0.057,0.176-0.126,0.251-0.214v-3.016h0.811L23.04,18.79z"/>
</svg>
